<svg width="840" height="840" viewBox="0 0 840 840" fill="none" xmlns="http://www.w3.org/2000/svg">
<path d="M370.927 787.634C368.424 785.484 362.813 778.646 367.13 770.7C368.726 767.794 372.086 766.349 375.144 765.072C378.284 764.014 381.242 762.478 383.914 760.519C388.668 756.487 389.978 749.767 393.137 744.358C396.766 738.158 403.519 733.522 410.676 733.841C418.858 734.227 425.678 740.897 428.77 748.524C431.861 756.151 431.978 764.602 432.13 772.834C432.13 777.386 431.962 782.527 428.618 785.602C425.275 788.676 420.89 788.458 416.724 788.34L372.002 786.962" fill="#F5F5F5"/>
<path d="M456.473 664.658H338.873L360.058 790.978C360.498 793.616 361.68 796.075 363.464 798.068C365.249 800.061 367.563 801.506 370.138 802.234L370.558 802.351C370.894 802.435 371.23 802.553 371.599 802.62C372.387 802.77 373.184 802.859 373.985 802.889V803.04L374.556 802.956H426.989C427.953 802.956 428.916 802.86 429.862 802.671C432.923 802.196 435.746 800.732 437.897 798.502C440.048 796.273 441.409 793.399 441.773 790.322L451.92 703.248L452.374 699.787L456.406 665.28L456.473 664.658ZM434.28 745.298H422.218L423.427 708.641H437.422L434.28 745.298ZM438.598 708.641H450.139L445.838 745.298H435.456L438.598 708.641ZM404.107 785.921L403.368 754.001H420.756L419.698 785.921H404.107ZM385.308 754.001H402.209L402.931 785.921H387.811L385.308 754.001ZM386.618 785.921H372.456C371.112 777.319 369.365 766.147 367.416 754.001H384.098L386.618 785.921ZM384.72 745.231L381.864 708.574H401.234L402.091 745.231H384.72ZM403.2 745.231L402.36 708.574H422.302L421.075 745.231H403.2ZM402.158 699.871L401.369 665.902H423.713L422.587 699.871H402.158ZM400.982 699.871H381.108L378.454 665.902H400.176L400.982 699.871ZM379.966 699.871H358.915C358.176 695.167 357.47 690.732 356.832 686.734C354.648 673.008 353.825 667.85 353.354 665.902H377.294L379.966 699.871ZM380.654 708.658L383.494 745.315H366.089C365.501 741.602 364.913 737.839 364.409 734.076C363.048 725.424 361.67 716.772 360.394 708.658H380.654ZM364.946 745.315H353.59L347.441 708.658H359.201C360.914 719.897 362.88 732.48 364.913 745.231L364.946 745.315ZM366.324 754.118C368.004 765.139 369.684 775.958 371.364 786.039H360.461L355.118 754.118H366.324ZM420.907 786.039L421.966 754.118H433.574L430.853 786.039H420.907ZM423.763 699.938L424.889 665.969H441.101L438.211 699.938H423.763ZM352.279 665.969C352.75 668.438 354.9 681.794 357.773 699.938H346.013L340.318 665.969H352.279ZM441.118 786.039H432.012L434.734 754.118H444.814L441.118 786.039ZM451.198 699.938H439.354L442.26 665.969H455.179L451.198 699.938Z" fill="#E0E0E0"/>
<path d="M462.201 539.784L398.748 559.558C396.643 560.192 394.372 559.975 392.425 558.954C390.478 557.934 389.008 556.19 388.332 554.098L360.965 466.267C360.33 464.162 360.547 461.892 361.568 459.944C362.589 457.997 364.332 456.527 366.425 455.851L406.661 443.318L447.821 465.713L467.661 529.368C468.296 531.473 468.079 533.743 467.058 535.691C466.038 537.638 464.294 539.108 462.201 539.784V539.784Z" fill="#EBEBEB"/>
<path d="M406.661 443.318L414.372 468.031C414.99 469.981 416.355 471.606 418.169 472.55C419.983 473.495 422.097 473.682 424.049 473.071L447.821 465.662L406.661 443.318Z" fill="#E0E0E0"/>
<path d="M408.727 468.72C408.828 469.039 402.343 471.341 394.229 473.861C386.114 476.381 379.478 478.178 379.378 477.859C379.277 477.54 385.778 475.238 393.876 472.718C401.974 470.198 408.643 468.367 408.727 468.72Z" fill="#FAFAFA"/>
<path d="M432.046 476.75C432.146 477.07 421.411 480.698 408.072 484.848C394.733 488.998 383.83 492.122 383.729 491.803C383.628 491.484 394.363 487.855 407.719 483.706C421.075 479.556 431.945 476.431 432.046 476.75Z" fill="#FAFAFA"/>
<path d="M440.042 487.066C440.143 487.385 428.434 491.316 413.885 495.852C399.336 500.388 387.475 503.798 387.374 503.479C387.274 503.16 398.983 499.229 413.532 494.693C428.081 490.157 439.942 486.746 440.042 487.066Z" fill="#FAFAFA"/>
<path d="M443.52 498.07C443.621 498.389 431.911 502.32 417.362 506.856C402.814 511.392 390.953 514.802 390.852 514.483C390.751 514.164 402.461 510.233 417.01 505.697C431.558 501.161 443.369 497.75 443.52 498.07Z" fill="#FAFAFA"/>
<path d="M446.88 509.04C446.981 509.359 435.271 513.29 420.739 517.826C406.207 522.362 394.313 525.773 394.212 525.453C394.111 525.134 405.821 521.22 420.37 516.684C434.918 512.148 446.88 508.771 446.88 509.04Z" fill="#FAFAFA"/>
<path d="M450.324 520.094C450.425 520.414 438.715 524.345 424.183 528.881C409.651 533.417 397.774 536.827 397.673 536.508C397.572 536.189 409.282 532.258 423.814 527.722C438.346 523.186 450.24 519.775 450.324 520.094Z" fill="#FAFAFA"/>
<path d="M731.438 197.081L669.497 173.04C667.457 172.22 665.821 170.633 664.938 168.619C664.055 166.606 663.997 164.327 664.776 162.271L698.124 76.5912C698.518 75.5734 699.109 74.6433 699.863 73.8541C700.616 73.0649 701.518 72.4322 702.517 71.9922C703.516 71.5521 704.592 71.3134 705.683 71.2896C706.774 71.2658 707.859 71.4574 708.876 71.8536L748.171 87.1416L766.382 130.2L742.207 192.36C741.387 194.399 739.8 196.036 737.786 196.919C735.773 197.801 733.494 197.859 731.438 197.081V197.081Z" fill="#EBEBEB"/>
<path d="M748.171 87.0408L738.78 111.166C738.4 112.116 738.213 113.132 738.229 114.155C738.245 115.178 738.465 116.188 738.874 117.125C739.283 118.063 739.875 118.91 740.615 119.618C741.354 120.325 742.226 120.878 743.181 121.246L766.382 130.267L748.171 87.0408Z" fill="#E0E0E0"/>
<path d="M733.958 108.158C733.841 108.478 727.339 106.226 719.426 103.118C711.514 100.01 705.197 97.2888 705.314 96.9864C705.432 96.684 711.95 98.9184 719.863 102.026C727.776 105.134 734.16 107.856 733.958 108.158Z" fill="#FAFAFA"/>
<path d="M747.163 129.007C747.045 129.31 736.394 125.462 723.374 120.389C710.354 115.315 699.854 110.964 700.006 110.662C700.157 110.359 710.774 114.24 723.811 119.28C736.848 124.32 747.281 128.688 747.163 129.007Z" fill="#FAFAFA"/>
<path d="M746.978 142.044C746.861 142.363 735.218 138.13 721.056 132.602C706.894 127.075 695.52 122.354 695.52 122.052C695.52 121.75 707.28 125.966 721.442 131.494C735.605 137.021 747.096 141.742 746.978 142.044Z" fill="#FAFAFA"/>
<path d="M742.795 152.88C742.678 153.182 731.035 148.966 716.873 143.438C702.71 137.911 691.27 133.19 691.387 132.871C691.505 132.552 703.147 136.802 717.31 142.313C731.472 147.823 742.93 152.477 742.795 152.88Z" fill="#FAFAFA"/>
<path d="M738.629 163.548C738.494 163.85 726.869 159.634 712.706 154.106C698.544 148.579 687.086 143.858 687.204 143.539C687.322 143.22 698.964 147.454 713.143 152.981C727.322 158.508 738.746 163.229 738.629 163.548Z" fill="#FAFAFA"/>
<path d="M734.446 174.283C734.311 174.602 722.685 170.369 708.523 164.858C694.361 159.348 682.903 154.56 683.038 154.291C683.172 154.022 694.798 158.205 708.96 163.733C723.122 169.26 734.563 173.981 734.446 174.283Z" fill="#FAFAFA"/>
<path d="M149.52 442.344C150.808 442.559 151.963 443.266 152.74 444.316C153.517 445.366 153.857 446.677 153.686 447.972C153.434 449.652 153.182 451.332 153.082 452.138L147.37 489.619C147.225 490.469 146.759 491.232 146.067 491.748C145.376 492.264 144.513 492.494 143.657 492.391L57.876 479.338C57.0604 479.191 56.328 478.747 55.8194 478.093C55.3108 477.439 55.062 476.619 55.1208 475.793L59.5056 427.224C59.5536 426.783 59.6883 426.356 59.9021 425.968C60.1159 425.579 60.4045 425.237 60.7512 424.961C61.0979 424.684 61.4959 424.479 61.9222 424.357C62.3485 424.235 62.7947 424.199 63.2352 424.25L82.6392 427.207C84.4681 427.499 86.1379 428.42 87.36 429.811L90.8376 433.826L149.52 442.344Z" fill="#E0E0E0"/>
<path d="M155.136 448.371L61.3955 434.11L52.7896 490.68L146.53 504.94L155.136 448.371Z" fill="#F5F5F5"/>
<path d="M53.1719 438.06L51.3575 498.137C51.3429 498.65 51.5155 499.151 51.8432 499.547C52.1708 499.943 52.6311 500.206 53.1383 500.287L144.48 514.181C145.013 514.255 145.553 514.122 145.991 513.81C146.429 513.497 146.73 513.029 146.832 512.501L160.406 454.205C160.473 453.925 160.481 453.635 160.432 453.352C160.382 453.069 160.276 452.799 160.118 452.559C159.961 452.318 159.757 452.112 159.517 451.953C159.278 451.794 159.009 451.686 158.726 451.634L55.6248 435.96C55.3214 435.911 55.0111 435.929 54.7153 436.012C54.4195 436.095 54.1454 436.242 53.912 436.442C53.6786 436.642 53.4915 436.89 53.3637 437.169C53.2359 437.449 53.1705 437.753 53.1719 438.06V438.06Z" fill="#EBEBEB"/>
<path d="M272.664 447.317C254.184 456.926 239.921 473.441 229.706 491.652C219.492 509.863 212.906 529.805 206.388 549.646L200.676 651.84C222.23 615.166 239.551 572.04 244.222 529.754L229.874 528.461C239.501 526.999 247.565 520.061 252.706 511.762C257.846 503.462 260.484 493.97 263.071 484.579L245.566 487.2C259.391 477.885 269.097 463.602 272.664 447.317V447.317Z" fill="#455A64"/>
<g opacity="0.3">
<path opacity="0.3" d="M272.664 447.317C254.184 456.926 239.921 473.441 229.706 491.652C219.492 509.863 212.906 529.805 206.388 549.646L200.676 651.84C222.23 615.166 239.551 572.04 244.222 529.754L229.874 528.461C239.501 526.999 247.565 520.061 252.706 511.762C257.846 503.462 260.484 493.97 263.071 484.579L245.566 487.2C259.391 477.885 269.097 463.602 272.664 447.317V447.317Z" fill="black"/>
</g>
<path d="M197.484 675.83C197.484 675.83 150.679 619.819 151.2 566.345H170.117C170.117 566.345 149.52 552.838 151.2 545.278C152.88 537.718 153.384 509.04 153.384 509.04L170.671 513.374C170.671 513.374 157.702 506.89 156.089 496.574C154.476 486.259 159.869 438.782 159.869 438.782C159.869 438.782 180.936 460.925 187.421 483.605C193.906 506.285 210.941 532.762 205.901 601.91C200.861 671.059 197.484 675.83 197.484 675.83Z" fill="#455A64"/>
<path d="M221.206 681.123C221.206 681.123 271.925 647.338 283.181 604.229L267.977 600.096C267.977 600.096 287.448 593.729 287.801 587.295C288.154 580.86 294 557.76 294 557.76L279.166 557.458C279.166 557.458 290.926 555.072 294.554 547.176C298.183 539.28 304.08 499.851 304.08 499.851C304.08 499.851 282.24 513.055 272.16 529.872C262.08 546.689 242.525 564.245 231.403 620.928C220.282 677.611 221.206 681.123 221.206 681.123Z" fill="#455A64"/>
<path d="M172.654 487.704C172.728 487.889 172.784 488.08 172.822 488.275L173.225 489.955L174.703 496.675C175.358 499.548 176.114 503.093 176.938 507.209C177.761 511.325 178.735 516.012 179.676 521.22C181.692 531.603 183.809 544.035 185.976 557.844C188.143 571.654 190.193 586.908 192.074 602.935C193.956 618.963 195.334 634.284 196.426 648.295C197.518 662.307 198.24 674.823 198.66 685.39C198.912 690.682 199.046 695.47 199.164 699.653C199.282 703.836 199.382 707.482 199.416 710.439C199.45 713.395 199.416 715.63 199.416 717.243V719.007C199.442 719.207 199.442 719.411 199.416 719.611C199.394 719.416 199.394 719.219 199.416 719.023C199.416 718.57 199.416 717.982 199.416 717.243C199.416 715.563 199.282 713.362 199.181 710.439C199.08 707.515 198.979 703.87 198.778 699.67C198.576 695.47 198.442 690.699 198.139 685.423C197.635 674.856 196.795 662.307 195.72 648.363C194.645 634.419 193.133 619.131 191.302 603.103C189.47 587.076 187.354 571.855 185.287 558.029C183.221 544.203 181.104 531.804 179.172 521.405C178.265 516.197 177.341 511.51 176.551 507.377C175.762 503.244 175.073 499.699 174.485 496.81C173.897 493.92 173.46 491.77 173.158 490.09C173.023 489.367 172.906 488.779 172.838 488.41C172.751 488.182 172.689 487.945 172.654 487.704Z" fill="#263238"/>
<path d="M190.999 710.136C190.999 710.136 148.159 661.55 134.87 632.167L144.95 627.883C137.676 629.076 130.217 625.951 124.572 621.163C118.927 616.375 114.794 610.176 110.729 604.01L123.95 601.776C111.802 598.305 101.455 590.292 95.0544 579.398C110.662 581.969 124.79 590.537 136.416 601.238C145.657 610.113 154.049 619.832 161.482 630.269C165.223 635.286 168.48 640.647 171.209 646.279C178.366 661.198 191.016 692.294 190.999 710.136Z" fill="#455A64"/>
<path d="M283.92 528.142C283.874 528.312 283.806 528.476 283.718 528.629L283.063 530.04L280.459 535.433C278.158 540.103 274.915 546.891 270.967 555.307C267.019 563.724 262.483 573.787 257.527 585.094C252.571 596.4 247.531 608.883 242.407 622.054C237.283 635.225 232.714 648.01 228.698 659.635C224.683 671.261 221.29 681.795 218.618 690.665C215.947 699.535 213.713 706.759 212.268 711.749L210.588 717.495C210.386 718.116 210.235 718.603 210.118 718.99C210 719.376 209.95 719.494 209.933 719.477C209.94 719.329 209.963 719.183 210 719.04C210.101 718.654 210.218 718.167 210.386 717.528C210.756 716.151 211.26 714.168 211.915 711.749C213.259 706.709 215.275 699.485 218.014 690.581C220.752 681.677 224.045 671.11 227.976 659.451C231.907 647.791 236.527 635.074 241.634 621.835C246.742 608.597 251.966 596.098 256.754 584.875C261.542 573.653 266.297 563.539 270.312 555.139C274.327 546.739 277.67 540.019 280.056 535.383L282.811 530.057C283.114 529.503 283.349 529.049 283.55 528.696C283.752 528.343 283.92 528.125 283.92 528.142Z" fill="#263238"/>
<path d="M194.628 730.968C194.521 730.682 194.453 730.382 194.426 730.078C194.309 729.389 194.174 728.532 194.006 727.491C193.67 725.256 193.116 722.014 192.326 718.049C191.537 714.084 190.462 709.363 189.067 704.206C187.673 699.048 185.842 693.437 183.674 687.641C181.507 681.845 179.088 676.486 176.77 671.664C174.451 666.842 172.133 662.592 170.05 659.098C167.966 655.603 166.286 652.815 165.01 650.916L163.615 648.699C163.426 648.456 163.278 648.183 163.178 647.892C163.397 648.103 163.589 648.34 163.75 648.598C164.17 649.169 164.674 649.858 165.278 650.714C166.606 652.562 168.42 655.318 170.537 658.795C172.654 662.273 175.006 666.49 177.408 671.294C179.81 676.099 182.196 681.526 184.414 687.339C186.631 693.151 188.429 698.88 189.84 703.92C191.251 708.96 192.242 713.849 192.948 717.864C193.654 721.879 194.124 725.122 194.342 727.373C194.443 728.431 194.527 729.288 194.594 729.977C194.653 730.304 194.664 730.638 194.628 730.968V730.968Z" fill="#263238"/>
<path d="M251.143 719.527H157.399V738.646H251.143V719.527Z" fill="#13CD61"/>
<path d="M166.337 738.662L176.467 802.973H233.117L242.559 738.662H166.337Z" fill="#13CD61"/>
<path d="M245.398 738.662C245.398 738.898 227.657 739.099 205.783 739.099C183.91 739.099 166.186 738.898 166.186 738.662C166.186 738.427 183.91 738.226 205.783 738.226C227.657 738.226 245.398 738.41 245.398 738.662Z" fill="#263238"/>
<path d="M557.491 96.0791H138.885V358.277H557.491V96.0791Z" fill="white"/>
<path d="M557.491 96.0791H138.885V120.103H557.491V96.0791Z" fill="#455A64"/>
<path d="M557.491 353.085H138.734V400.361H557.491V353.085Z" fill="#F5F5F5"/>
<path d="M224.818 375.95H228.564L229.74 378.403H230.546L226.8 370.591H226.582L222.835 378.403H223.642L224.818 375.95ZM226.699 372.053L228.211 375.228H225.12L226.699 372.053Z" fill="#263238"/>
<path d="M231.101 380.083H222.23V380.705H231.101V380.083Z" fill="#263238"/>
<path d="M169.68 370.138H169.092C168.242 370.197 167.447 370.577 166.867 371.201C166.287 371.825 165.965 372.646 165.967 373.498C166.385 375.978 167.465 378.3 169.092 380.218C169.092 380.218 169.31 380.621 169.68 380.218C171.307 378.3 172.387 375.978 172.805 373.498C172.807 372.646 172.485 371.825 171.905 371.201C171.325 370.577 170.53 370.197 169.68 370.138V370.138ZM169.378 375.463C169.011 375.463 168.654 375.354 168.349 375.151C168.045 374.947 167.808 374.657 167.669 374.319C167.529 373.98 167.494 373.607 167.567 373.249C167.639 372.89 167.817 372.56 168.077 372.303C168.337 372.045 168.668 371.87 169.028 371.801C169.387 371.731 169.759 371.77 170.097 371.913C170.434 372.055 170.721 372.295 170.922 372.601C171.123 372.907 171.229 373.266 171.226 373.632C171.226 374.115 171.035 374.578 170.695 374.921C170.356 375.264 169.894 375.459 169.411 375.463H169.378Z" fill="#263238"/>
<path d="M211.243 378C211.243 378.503 211.043 378.986 210.687 379.342C210.331 379.698 209.848 379.898 209.345 379.898C208.841 379.898 208.359 379.698 208.003 379.342C207.646 378.986 207.446 378.503 207.446 378V371.868C207.446 371.543 207.576 371.231 207.806 371.001C208.036 370.771 208.348 370.642 208.673 370.642C208.998 370.642 209.31 370.771 209.54 371.001C209.77 371.231 209.899 371.543 209.899 371.868V377.059C209.865 377.213 209.781 377.352 209.659 377.452C209.537 377.553 209.385 377.61 209.227 377.614C209.067 377.61 208.913 377.554 208.788 377.454C208.663 377.354 208.576 377.215 208.538 377.059V372.96H208.085V376.79V376.975C208.125 377.247 208.26 377.496 208.466 377.677C208.672 377.859 208.936 377.961 209.21 377.966C209.484 377.958 209.746 377.854 209.952 377.673C210.157 377.492 210.293 377.246 210.336 376.975V376.874C210.338 376.846 210.338 376.818 210.336 376.79V371.75C210.336 371.305 210.159 370.877 209.844 370.562C209.529 370.247 209.102 370.07 208.656 370.07C208.211 370.07 207.783 370.247 207.468 370.562C207.153 370.877 206.976 371.305 206.976 371.75V378.168C207.034 378.752 207.307 379.293 207.742 379.687C208.176 380.081 208.741 380.3 209.328 380.301C209.914 380.304 210.479 380.086 210.912 379.69C211.345 379.295 211.613 378.752 211.663 378.168V378.168V372.96H211.21L211.243 378Z" fill="#263238"/>
<path d="M191.05 373.33L189.37 369.768L187.606 373.33L183.691 373.901L186.53 376.673L185.858 380.57L189.37 378.722L192.881 380.57L192.209 376.673L195.048 373.901L191.05 373.33ZM192.058 379.529L189.302 378.084L186.547 379.529L187.051 376.622V376.471L184.8 374.304L187.874 373.85L189.252 371.062L190.63 373.85L193.704 374.304L191.638 376.32L191.52 376.438L192.058 379.529Z" fill="#263238"/>
<path d="M260.182 365.4H259.61V383.628H260.182V365.4Z" fill="#263238"/>
<path d="M249.043 371.851H241.786V379.579H249.043V371.851Z" fill="#263238"/>
<path d="M244.07 370.037V370.625H246.742V370.037H249.026V371.229H241.786V370.037H244.07Z" fill="#263238"/>
<path d="M246.742 369.432H244.07V370.02H246.742V369.432Z" fill="#263238"/>
<path d="M246.742 370.037H244.07V370.625H246.742V370.037Z" fill="#263238"/>
<path d="M276.612 375.984L278.83 373.766L279.099 374.035L276.612 376.522L274.109 374.035L274.378 373.766L276.612 375.984Z" fill="#263238"/>
<path d="M534.408 188.16C533.769 188.164 533.155 188.414 532.695 188.858C532.235 189.302 531.964 189.907 531.938 190.546V190.546V199.92C531.999 200.79 532.388 201.604 533.025 202.198C533.663 202.793 534.502 203.124 535.374 203.124C536.246 203.124 537.085 202.793 537.723 202.198C538.36 201.604 538.749 200.79 538.81 199.92V199.92V192.36H538.138V199.601C538.083 200.301 537.767 200.955 537.251 201.431C536.736 201.908 536.059 202.173 535.357 202.173C534.655 202.173 533.979 201.908 533.463 201.431C532.948 200.955 532.631 200.301 532.577 199.601V190.63C532.577 190.153 532.766 189.696 533.103 189.358C533.44 189.021 533.898 188.832 534.374 188.832C534.851 188.832 535.308 189.021 535.646 189.358C535.983 189.696 536.172 190.153 536.172 190.63V198.24C536.119 198.464 535.993 198.663 535.813 198.806C535.633 198.949 535.411 199.028 535.181 199.03C534.961 199.015 534.751 198.93 534.582 198.788C534.413 198.646 534.293 198.454 534.24 198.24V192.377H533.568V197.988V198.24C533.568 198.685 533.745 199.113 534.06 199.428C534.375 199.743 534.802 199.92 535.248 199.92C535.694 199.92 536.121 199.743 536.436 199.428C536.751 199.113 536.928 198.685 536.928 198.24V198.089C536.928 198.089 536.928 198.005 536.928 197.971V190.546C536.902 189.898 536.624 189.286 536.153 188.84C535.682 188.395 535.056 188.151 534.408 188.16V188.16Z" fill="#263238"/>
<path d="M304.164 139.305C304.164 139.541 277.418 139.742 244.423 139.742C211.428 139.742 184.682 139.541 184.682 139.305C184.682 139.07 211.428 138.869 244.423 138.869C277.418 138.869 304.164 139.053 304.164 139.305Z" fill="#263238"/>
<path d="M357.521 166.555C357.521 166.807 318.881 166.992 271.102 166.992C223.322 166.992 184.682 166.807 184.682 166.555C184.682 166.303 223.322 166.118 271.102 166.118C318.881 166.118 357.521 166.32 357.521 166.555Z" fill="#263238"/>
<path d="M293.614 193.62C293.351 193.645 293.087 193.645 292.824 193.62H290.539L282.139 193.754C275.066 193.754 265.339 193.889 254.554 193.889C243.768 193.889 234.024 193.889 226.968 193.754L218.568 193.62H216.3C216.032 193.644 215.762 193.644 215.494 193.62C215.756 193.545 216.028 193.511 216.3 193.519H218.568L226.968 193.385C234.024 193.385 243.768 193.267 254.554 193.267C265.339 193.267 275.066 193.267 282.139 193.385L290.539 193.519H292.824C293.091 193.51 293.358 193.544 293.614 193.62V193.62Z" fill="#263238"/>
<path d="M552.972 208.32C552.972 208.555 460.27 208.757 345.946 208.757C231.621 208.757 138.885 208.572 138.885 208.32C138.885 208.068 231.571 207.883 345.946 207.883C460.32 207.883 552.972 208.085 552.972 208.32Z" fill="#E0E0E0"/>
<path d="M552.972 178.819C552.972 179.071 460.236 179.256 345.862 179.256C231.487 179.256 138.734 179.071 138.734 178.819C138.734 178.567 231.454 178.382 345.862 178.382C460.27 178.382 552.972 178.584 552.972 178.819Z" fill="#E0E0E0"/>
<path d="M552.972 152.88C552.972 153.115 460.27 153.317 345.946 153.317C231.621 153.317 138.885 153.166 138.885 152.88C138.885 152.594 231.571 152.443 345.946 152.443C460.32 152.443 552.972 152.695 552.972 152.88Z" fill="#E0E0E0"/>
<path d="M194.477 244.322C189.747 244.755 184.995 244.901 180.247 244.759C175.494 244.901 170.736 244.755 166.001 244.322C170.736 243.89 175.494 243.744 180.247 243.886C184.995 243.744 189.747 243.89 194.477 244.322V244.322Z" fill="#263238"/>
<path d="M356.614 260.803C356.614 261.038 313.505 261.24 260.366 261.24C207.228 261.24 164.102 261.038 164.102 260.803C164.102 260.568 207.194 260.4 260.4 260.4C313.606 260.4 356.614 260.568 356.614 260.803Z" fill="#263238"/>
<path d="M324.677 272.328C324.677 272.529 288.725 272.697 244.389 272.697C200.054 272.697 164.102 272.529 164.102 272.328C164.102 272.126 200.037 271.958 244.389 271.958C288.741 271.958 324.677 272.16 324.677 272.328Z" fill="#263238"/>
<path d="M150.612 110.695C152.05 110.695 153.216 109.529 153.216 108.091C153.216 106.653 152.05 105.487 150.612 105.487C149.174 105.487 148.008 106.653 148.008 108.091C148.008 109.529 149.174 110.695 150.612 110.695Z" fill="white"/>
<path d="M159.869 110.695C161.307 110.695 162.473 109.529 162.473 108.091C162.473 106.653 161.307 105.487 159.869 105.487C158.431 105.487 157.265 106.653 157.265 108.091C157.265 109.529 158.431 110.695 159.869 110.695Z" fill="white"/>
<path d="M169.125 110.695C170.564 110.695 171.729 109.529 171.729 108.091C171.729 106.653 170.564 105.487 169.125 105.487C167.687 105.487 166.521 106.653 166.521 108.091C166.521 109.529 167.687 110.695 169.125 110.695Z" fill="white"/>
<path d="M559.171 400.344C559.171 397.421 559.02 280.594 558.818 96.0791L559.171 96.4319L138.919 96.5159L139.356 96.0791C139.356 205.162 139.356 308.616 139.356 400.344L138.953 399.958L559.238 400.344L138.953 400.747H138.566V400.344C138.566 308.616 138.566 205.162 138.566 96.0791V95.6423H139.037H559.289H559.642V95.9951C559.306 280.56 559.171 397.421 559.171 400.344Z" fill="#263238"/>
<path d="M687.876 705.818H678.166V711.043H687.876V705.818Z" fill="#E0E0E0"/>
<path d="M684.549 574.14H662.122V685.373H684.549V574.14Z" fill="#EBEBEB"/>
<path d="M724.231 580.003H618.962C613.584 580.003 608.427 577.867 604.624 574.064C600.821 570.261 598.685 565.104 598.685 559.726V559.726C598.683 557.061 599.206 554.423 600.224 551.961C601.242 549.498 602.735 547.261 604.618 545.376C606.501 543.492 608.737 541.996 611.199 540.976C613.66 539.956 616.298 539.431 618.962 539.431H724.231C726.896 539.431 729.534 539.956 731.995 540.976C734.456 541.996 736.692 543.492 738.576 545.376C740.459 547.261 741.952 549.498 742.97 551.961C743.988 554.423 744.511 557.061 744.509 559.726V559.726C744.509 562.388 743.984 565.025 742.965 567.486C741.946 569.946 740.453 572.181 738.57 574.064C736.687 575.947 734.451 577.441 731.991 578.46C729.531 579.479 726.894 580.003 724.231 580.003Z" fill="#455A64"/>
<path d="M680.518 685.373H666.305V764.333H680.518V685.373Z" fill="#E0E0E0"/>
<path d="M616.409 802.822C613.62 803.174 736.176 802.822 736.176 802.822C736.176 802.822 683.894 796.975 680.518 764.333H666.305C666.305 764.333 662.726 796.925 616.409 802.822Z" fill="#E0E0E0"/>
<path d="M728.398 580.003C728.398 580.238 704.054 580.44 674.033 580.44C644.011 580.44 619.668 580.238 619.668 580.003C619.668 579.768 644.011 579.566 674.033 579.566C704.054 579.566 728.398 579.768 728.398 580.003Z" fill="#263238"/>
<path d="M684.533 685.44C677.006 686.021 669.446 686.021 661.92 685.44C669.452 684.858 677.018 684.858 684.549 685.44H684.533Z" fill="#263238"/>
<path d="M687.876 716.889C687.117 716.889 686.389 716.589 685.851 716.054C685.312 715.519 685.008 714.792 685.003 714.033V702.828C685.008 702.067 685.312 701.339 685.849 700.801C686.387 700.264 687.115 699.959 687.876 699.955V699.955C688.637 699.959 689.365 700.264 689.902 700.801C690.44 701.339 690.744 702.067 690.749 702.828V714C690.751 714.379 690.678 714.754 690.535 715.104C690.392 715.455 690.18 715.774 689.913 716.042C689.646 716.311 689.329 716.524 688.979 716.669C688.63 716.815 688.255 716.889 687.876 716.889Z" fill="#E0E0E0"/>
<path d="M463.882 256.536C463.882 256.536 468.804 251.143 470.299 251.025C471.794 250.908 487.099 255.494 487.099 255.494C488.874 255.83 490.53 256.624 491.904 257.796C493.282 259.476 508.418 275.856 508.418 275.856L491.618 290.673C491.618 290.673 471.895 287.129 470.182 285.062C468.468 282.996 467.09 279.686 468.35 278.645C467.502 277.192 467.104 275.519 467.208 273.84C467.484 272.657 467.826 271.49 468.233 270.345C468.233 270.345 465.259 268.212 465.142 266.733C465.105 265.936 464.911 265.154 464.57 264.432L463.882 263.289V256.536Z" fill="#FFBE9D"/>
<path d="M470.753 259.745C470.837 259.745 470.753 260.266 470.484 261.022C470.097 262.031 469.455 262.923 468.619 263.609C468.179 263.949 467.67 264.19 467.128 264.315C466.585 264.44 466.022 264.445 465.477 264.331C464.637 264.113 464.301 263.659 464.369 263.609C464.436 263.558 464.839 263.777 465.561 263.844C466.507 263.888 467.439 263.603 468.199 263.038C468.942 262.412 469.562 261.654 470.03 260.803C470.4 260.131 470.652 259.711 470.753 259.745Z" fill="#EB996E"/>
<path d="M403.368 221.273C400.94 221.259 398.604 222.208 396.873 223.911C395.142 225.614 394.155 227.933 394.128 230.362L393.339 331.682C393.325 334.111 394.273 336.446 395.977 338.178C397.68 339.909 399.999 340.896 402.427 340.922L475.625 341.494C478.053 341.507 480.389 340.559 482.12 338.856C483.851 337.153 484.838 334.833 484.865 332.405L485.352 231.034C485.361 229.8 485.126 228.576 484.661 227.433C484.196 226.29 483.51 225.251 482.642 224.373C481.774 223.496 480.742 222.799 479.604 222.322C478.466 221.844 477.245 221.596 476.011 221.592L403.368 221.273Z" fill="#E0E0E0"/>
<path d="M443.52 252C443.52 252.37 435.943 252.605 426.586 252.538C417.228 252.47 409.651 252.101 409.651 251.731C409.651 251.362 417.245 251.126 426.602 251.21C435.96 251.294 443.52 251.681 443.52 252Z" fill="#E0E0E0"/>
<path d="M465.192 265.238C465.192 265.608 452.693 265.81 437.304 265.675C421.915 265.541 409.45 265.171 409.45 264.802C409.45 264.432 421.932 264.23 437.321 264.348C452.71 264.466 465.192 264.869 465.192 265.238Z" fill="#E0E0E0"/>
<path d="M470.098 278.745C470.098 279.115 456.49 279.3 439.706 279.165C422.923 279.031 409.332 278.628 409.332 278.258C409.332 277.889 422.94 277.704 439.723 277.838C456.506 277.973 470.098 278.376 470.098 278.745Z" fill="#E0E0E0"/>
<path d="M469.997 291.446C469.997 291.816 456.389 292.001 439.622 291.866C422.856 291.732 409.231 291.329 409.231 290.959C409.231 290.59 422.839 290.405 439.622 290.539C456.406 290.674 469.997 291.077 469.997 291.446Z" fill="#E0E0E0"/>
<path d="M469.896 304.08C469.896 304.449 456.288 304.634 439.522 304.5C422.755 304.365 409.13 303.962 409.13 303.593C409.13 303.223 422.738 303.038 439.522 303.173C456.305 303.307 469.896 303.777 469.896 304.08Z" fill="#E0E0E0"/>
<path d="M469.795 316.848C469.795 317.218 456.187 317.402 439.421 317.268C422.654 317.134 409.03 316.73 409.046 316.378C409.063 316.025 422.638 315.806 439.421 315.941C456.204 316.075 469.795 316.478 469.795 316.848Z" fill="#E0E0E0"/>
<path d="M399.974 218.249C398.772 218.24 397.58 218.468 396.465 218.92C395.351 219.372 394.337 220.039 393.48 220.883C392.624 221.727 391.942 222.731 391.474 223.839C391.005 224.946 390.76 226.135 390.751 227.338L389.945 328.658C389.931 331.087 390.88 333.422 392.583 335.154C394.286 336.885 396.605 337.872 399.034 337.898L472.248 338.47C473.45 338.478 474.643 338.25 475.757 337.798C476.871 337.346 477.886 336.679 478.742 335.835C479.598 334.991 480.28 333.987 480.749 332.88C481.217 331.772 481.462 330.583 481.471 329.381L481.975 227.993C481.984 225.505 481.006 223.115 479.254 221.348C477.503 219.581 475.122 218.581 472.634 218.568L399.974 218.249Z" fill="white"/>
<path d="M399.974 218.249C399.974 218.249 400.344 218.249 401.033 218.249H404.107H415.951H459.514H470.215C471.471 218.205 472.728 218.244 473.978 218.366C475.297 218.548 476.563 219.002 477.696 219.699C478.83 220.396 479.806 221.321 480.564 222.415C481.366 223.531 481.911 224.81 482.16 226.161C482.341 227.509 482.397 228.87 482.328 230.227C482.328 241.046 482.244 252.605 482.194 264.751C482.143 276.897 482.093 289.665 482.026 302.904C482.026 309.506 482.026 316.243 481.942 323.064C481.942 324.744 481.942 326.424 481.942 328.221C482.069 330.014 481.746 331.81 481.001 333.446C480.212 335.103 478.965 336.499 477.408 337.469C475.851 338.44 474.049 338.944 472.214 338.923L431.239 338.587L411.768 338.419H402.326C400.757 338.446 399.186 338.39 397.622 338.251C396.036 338.008 394.542 337.354 393.288 336.353C392.052 335.389 391.07 334.139 390.426 332.711C389.782 331.282 389.496 329.718 389.592 328.154C389.592 325.181 389.592 322.257 389.676 319.385C389.676 313.622 389.777 308.028 389.827 302.585C389.928 291.765 390.029 281.702 390.113 272.496C390.314 254.133 390.482 239.265 390.6 228.95C390.555 227.728 390.651 226.505 390.886 225.305C391.138 224.25 391.576 223.249 392.179 222.348C393.123 220.935 394.436 219.807 395.976 219.089C396.921 218.658 397.932 218.391 398.966 218.299C399.313 218.273 399.661 218.273 400.008 218.299C398.64 218.356 397.297 218.687 396.06 219.273C394.568 219.995 393.302 221.11 392.398 222.499C391.821 223.38 391.411 224.36 391.188 225.389C390.972 226.568 390.887 227.769 390.936 228.967C390.936 239.282 390.818 254.167 390.734 272.529C390.734 281.719 390.617 291.799 390.55 302.601C390.55 308.011 390.55 313.605 390.449 319.401C390.449 322.291 390.449 325.214 390.449 328.171C390.353 329.612 390.608 331.054 391.193 332.374C391.779 333.694 392.676 334.852 393.809 335.748C394.971 336.639 396.341 337.217 397.79 337.428C399.31 337.555 400.835 337.606 402.36 337.579H411.802L431.29 337.713L472.248 338.033C473.925 338.052 475.572 337.587 476.99 336.693C478.409 335.799 479.539 334.514 480.245 332.993C480.934 331.472 481.234 329.803 481.118 328.137C481.118 326.457 481.118 324.777 481.118 322.997C481.118 316.176 481.152 309.456 481.219 302.837C481.219 289.615 481.37 276.847 481.438 264.701C481.505 252.554 481.589 240.996 481.656 230.177C481.717 228.859 481.666 227.538 481.505 226.229C481.269 224.984 480.771 223.805 480.043 222.768C479.339 221.749 478.433 220.886 477.381 220.233C476.329 219.58 475.153 219.15 473.928 218.971C472.752 218.82 471.492 218.887 470.266 218.853H466.62H459.564L416.002 218.517L404.158 218.383H401.083L399.974 218.249Z" fill="#263238"/>
<path d="M440.059 249.026C440.059 249.396 432.466 249.631 423.108 249.564C413.75 249.497 406.19 249.127 406.19 248.758C406.19 248.388 413.767 248.153 423.125 248.237C432.482 248.321 440.059 248.64 440.059 249.026Z" fill="#263238"/>
<path d="M461.798 262.214C461.798 262.584 449.316 262.786 433.927 262.651C418.538 262.517 406.056 262.147 406.056 261.778C406.056 261.408 418.538 261.206 433.944 261.324C449.349 261.442 461.798 261.845 461.798 262.214Z" fill="#263238"/>
<path d="M466.721 275.721C466.721 276.091 453.113 276.276 436.329 276.141C419.546 276.007 405.955 275.604 405.955 275.234C405.955 274.865 419.563 274.68 436.346 274.814C453.13 274.949 466.721 275.352 466.721 275.721Z" fill="#263238"/>
<path d="M466.62 288.422C466.62 288.792 453.012 288.977 436.229 288.842C419.446 288.708 405.854 288.305 405.854 287.935C405.854 287.566 419.463 287.381 436.246 287.515C453.029 287.65 466.62 288.053 466.62 288.422Z" fill="#263238"/>
<path d="M466.519 301.123C466.519 301.493 452.911 301.678 436.128 301.543C419.345 301.409 405.754 301.006 405.754 300.636C405.754 300.266 419.362 300.082 436.145 300.216C452.928 300.35 466.519 300.72 466.519 301.123Z" fill="#263238"/>
<path d="M466.418 313.824C466.418 314.194 452.81 314.378 436.027 314.244C419.244 314.11 405.653 313.706 405.653 313.354C405.653 313.001 419.261 312.782 436.044 312.917C452.827 313.051 466.418 313.454 466.418 313.824Z" fill="#263238"/>
<path d="M409.181 237.149C407.929 237.149 406.728 236.651 405.843 235.766C404.957 234.881 404.46 233.68 404.46 232.428V220.668C404.46 219.826 404.795 219.018 405.39 218.423C405.986 217.827 406.793 217.493 407.635 217.493C408.477 217.493 409.285 217.827 409.88 218.423C410.476 219.018 410.81 219.826 410.81 220.668V229.068C410.825 229.159 410.82 229.253 410.796 229.342C410.771 229.431 410.727 229.514 410.667 229.585C410.607 229.655 410.532 229.712 410.448 229.751C410.364 229.79 410.273 229.81 410.18 229.81C410.088 229.81 409.996 229.79 409.912 229.751C409.828 229.712 409.754 229.655 409.694 229.585C409.634 229.514 409.59 229.431 409.565 229.342C409.541 229.253 409.535 229.159 409.55 229.068V220.668C409.55 220.16 409.349 219.673 408.989 219.314C408.63 218.955 408.143 218.753 407.635 218.753C407.127 218.753 406.64 218.955 406.281 219.314C405.922 219.673 405.72 220.16 405.72 220.668V232.428C405.72 233.346 406.085 234.226 406.734 234.875C407.383 235.524 408.263 235.889 409.181 235.889C410.099 235.889 410.979 235.524 411.628 234.875C412.277 234.226 412.642 233.346 412.642 232.428V218.87C412.673 217.67 412.274 216.497 411.517 215.565C410.76 214.632 409.695 214 408.513 213.783C407.332 213.567 406.112 213.779 405.073 214.382C404.034 214.985 403.245 215.939 402.847 217.073V217.627C402.823 217.777 402.746 217.913 402.631 218.011C402.515 218.109 402.369 218.162 402.217 218.162C402.066 218.162 401.919 218.109 401.804 218.011C401.689 217.913 401.612 217.777 401.587 217.627V216.955C401.571 216.889 401.571 216.82 401.587 216.754C402.08 215.342 403.058 214.15 404.346 213.392C405.635 212.633 407.151 212.356 408.624 212.61C410.098 212.864 411.434 213.632 412.394 214.779C413.354 215.925 413.876 217.375 413.868 218.87V232.428C413.868 233.674 413.375 234.87 412.497 235.754C411.619 236.639 410.427 237.14 409.181 237.149Z" fill="#263238"/>
<path d="M498.59 268.162L490.56 263.122L469.997 252.269C469.997 252.269 465.914 256.234 472.819 261.946L481.32 268.666C481.32 268.666 488.88 282.526 490.493 283.534C493.44 284.926 496.457 286.165 499.531 287.246L498.59 268.162Z" fill="#FFBE9D"/>
<path d="M500.321 287.633C500.038 287.614 499.761 287.551 499.497 287.448C498.96 287.297 498.17 287.078 497.162 286.725C496.154 286.373 494.945 285.953 493.567 285.331C492.829 285.011 492.111 284.646 491.417 284.239C490.606 283.782 489.898 283.165 489.333 282.425C486.757 278.818 484.439 275.034 482.395 271.101L481.454 269.421C481.145 268.892 480.734 268.43 480.245 268.061C479.287 267.221 478.212 266.381 477.153 265.574C474.872 263.923 472.69 262.139 470.618 260.232C469.487 259.18 468.752 257.771 468.538 256.241C468.323 254.711 468.643 253.154 469.442 251.832L469.61 251.58L469.896 251.748C478.111 256.385 485.201 260.618 490.56 263.105C493.164 264.533 495.146 265.809 496.507 266.666L498.069 267.691C498.255 267.81 498.429 267.945 498.59 268.094C498.383 268.024 498.186 267.928 498.002 267.809L496.322 266.885C494.911 266.078 492.878 264.852 490.274 263.525C484.865 261.156 477.708 256.973 469.493 252.369L469.929 252.269C469.228 253.408 468.966 254.763 469.19 256.082C469.414 257.468 470.066 258.749 471.055 259.745C473.114 261.612 475.267 263.373 477.506 265.02C478.582 265.86 479.64 266.7 480.631 267.54C480.884 267.762 481.125 267.998 481.353 268.245C481.591 268.496 481.799 268.772 481.975 269.069C482.278 269.64 482.597 270.177 482.899 270.749C484.888 274.666 487.133 278.449 489.619 282.072C490.694 283.345 492.068 284.332 493.617 284.945C494.961 285.583 496.154 286.053 497.146 286.44L499.413 287.28C499.723 287.378 500.026 287.496 500.321 287.633V287.633Z" fill="#EB996E"/>
<path d="M722.131 229.051C721.845 224.011 721.224 199.786 720.921 196.09C720.613 191.041 718.44 186.287 714.823 182.75C711.161 179.39 705.465 177.878 700.98 180.079C699.52 180.45 698.184 181.2 697.107 182.254C696.031 183.307 695.251 184.626 694.848 186.077C684.633 222.398 686.246 261.072 681.727 298.637C695.066 300.804 713.009 299.914 726.499 299.208C726.499 269.22 723.962 261.442 722.131 229.051Z" fill="#263238"/>
<path d="M716.503 280.274C716.427 279.955 716.393 279.628 716.402 279.3C716.402 278.561 716.318 277.62 716.268 276.511C716.184 273.974 716.083 270.497 715.949 266.263C715.764 257.51 715.512 245.599 715.243 232.445C715.142 225.859 715.042 219.576 714.958 213.83C714.958 210.974 714.958 208.253 714.857 205.716C714.903 203.371 714.74 201.026 714.37 198.71C714.163 197.043 713.59 195.442 712.693 194.022C711.795 192.602 710.595 191.398 709.178 190.495C708.09 189.91 706.897 189.545 705.667 189.42H705.902C706.148 189.396 706.396 189.396 706.642 189.42C707.587 189.499 708.507 189.768 709.346 190.209C710.674 190.931 711.822 191.941 712.706 193.166C713.859 194.791 714.639 196.649 714.991 198.609C715.396 200.956 715.592 203.334 715.579 205.716C715.579 208.269 715.697 210.974 715.764 213.83C715.882 219.576 715.999 225.859 716.117 232.461C716.302 245.599 716.453 257.51 716.57 266.263C716.57 270.514 716.57 273.974 716.57 276.528C716.57 277.654 716.57 278.577 716.57 279.317C716.586 279.637 716.564 279.959 716.503 280.274V280.274Z" fill="#455A64"/>
<path d="M704.374 266.498C704.25 265.777 704.2 265.046 704.222 264.314C704.222 262.903 704.138 260.854 704.138 258.334C704.138 253.294 704.239 246.338 704.424 238.661C704.609 230.983 704.827 224.196 704.978 218.971C704.978 216.602 705.113 214.603 705.18 213.024C705.167 212.287 705.223 211.55 705.348 210.823C705.484 211.548 705.541 212.287 705.516 213.024C705.516 214.435 705.516 216.384 705.6 218.988C705.6 224.028 705.499 230.983 705.298 238.678C705.096 246.372 704.894 253.126 704.76 258.35C704.676 260.719 704.609 262.718 704.558 264.314C704.573 265.047 704.511 265.779 704.374 266.498V266.498Z" fill="#455A64"/>
<path d="M659.82 152.141C669.9 151.099 678.3 155.501 686.263 161.599C694.239 167.88 700.102 176.451 703.063 186.161C706.238 196.241 706.289 210.605 702.677 220.567C701.061 225.285 698.324 229.539 694.701 232.966C691.079 236.392 686.678 238.889 681.878 240.24C667.951 244.171 652.26 242.575 641.306 233.117C630.353 223.658 624.725 208.824 625.111 194.359C625.237 184.305 628.529 174.547 634.519 166.471C637.532 162.485 641.333 159.161 645.686 156.707C650.038 154.253 654.85 152.722 659.82 152.208" fill="#263238"/>
<path d="M685.776 187.639C684.566 183.758 685.406 179.558 685.104 175.51C684.415 166.589 677.762 159.046 669.749 155.047C662.29 151.351 652.949 151.435 643.474 153.821C636.937 155.339 630.969 158.69 626.27 163.481C623.27 166.747 621.094 170.684 619.925 174.963C618.756 179.241 618.628 183.738 619.55 188.076L665.196 184.447C669.194 188.227 673.31 192.074 678.317 194.359C679.756 195.111 681.364 195.481 682.987 195.434C683.794 195.388 684.571 195.112 685.226 194.639C685.881 194.166 686.386 193.515 686.683 192.763C687.12 191.066 686.297 189.319 685.776 187.639Z" fill="#263238"/>
<path d="M641.76 166.32L680.686 177.274C682.519 177.516 684.194 178.438 685.379 179.856C686.565 181.275 687.174 183.088 687.087 184.934L681.022 270.329C680.614 276.168 678.287 281.708 674.402 286.087L670.32 290.64C661.013 301.14 643.692 298.889 637.947 286.087C637.598 285.355 637.344 284.582 637.191 283.786C637.073 283.141 636.989 282.49 636.939 281.837C636.539 277.514 636.596 273.161 637.107 268.85C637.224 261.223 637.308 258.098 637.291 258.166C637.275 258.233 621.281 255.074 618.492 233.974C617.115 223.49 618.106 206.388 619.349 192.41C620.407 179.76 629.177 164.64 641.76 166.32Z" fill="#FFBE9D"/>
<path d="M624.238 208.807C624.21 209.509 624.458 210.194 624.929 210.715C625.4 211.236 626.057 211.553 626.758 211.596C627.099 211.631 627.444 211.597 627.772 211.497C628.1 211.397 628.405 211.233 628.67 211.014C628.934 210.795 629.152 210.526 629.311 210.222C629.47 209.918 629.567 209.586 629.597 209.244C629.625 208.542 629.376 207.857 628.905 207.336C628.434 206.815 627.778 206.499 627.077 206.455C626.736 206.42 626.391 206.454 626.062 206.554C625.734 206.654 625.429 206.818 625.165 207.037C624.901 207.256 624.683 207.525 624.523 207.829C624.364 208.133 624.267 208.465 624.238 208.807V208.807Z" fill="#263238"/>
<path d="M622.759 201.381C623.078 201.751 625.162 200.289 628.068 200.373C630.974 200.457 633.108 202.053 633.377 201.617C633.645 201.18 633.209 200.827 632.301 200.121C631.068 199.227 629.591 198.729 628.068 198.693C626.561 198.649 625.078 199.085 623.834 199.937C622.927 200.592 622.608 201.23 622.759 201.381Z" fill="#263238"/>
<path d="M650.16 209.849C650.132 210.551 650.381 211.235 650.852 211.757C651.323 212.278 651.979 212.594 652.68 212.637C653.022 212.674 653.368 212.643 653.697 212.544C654.026 212.445 654.332 212.281 654.597 212.061C654.861 211.842 655.079 211.572 655.238 211.267C655.396 210.962 655.492 210.628 655.519 210.285C655.543 209.585 655.293 208.902 654.823 208.382C654.353 207.862 653.699 207.544 652.999 207.497C652.658 207.462 652.313 207.496 651.985 207.595C651.657 207.695 651.351 207.859 651.087 208.078C650.823 208.297 650.605 208.566 650.446 208.87C650.287 209.174 650.189 209.507 650.16 209.849V209.849Z" fill="#263238"/>
<path d="M650.261 202.473C650.58 202.843 652.663 201.381 655.553 201.465C658.442 201.549 660.593 203.145 660.862 202.709C661.13 202.272 660.71 201.919 659.786 201.213C658.554 200.317 657.077 199.819 655.553 199.785C654.046 199.744 652.564 200.179 651.319 201.029C650.412 201.684 650.16 202.322 650.261 202.473Z" fill="#263238"/>
<path d="M640.08 223.894C638.564 223.375 636.99 223.048 635.393 222.919C634.654 222.818 633.965 222.667 633.847 222.146C633.799 221.384 633.993 220.625 634.402 219.979C635.141 218.198 635.914 216.334 636.737 214.402C639.996 206.455 642.365 199.92 642.046 199.786C641.726 199.651 638.82 205.985 635.578 213.931C634.788 215.897 634.032 217.762 633.326 219.542C632.84 220.422 632.679 221.445 632.873 222.432C632.97 222.697 633.126 222.936 633.33 223.131C633.534 223.326 633.78 223.472 634.049 223.558C634.459 223.674 634.882 223.742 635.309 223.759C636.887 224.007 638.49 224.052 640.08 223.894V223.894Z" fill="#263238"/>
<path d="M637.224 258.132C647.106 258.561 656.912 256.234 665.549 251.412C665.549 251.412 658.089 265.759 637.123 263.172L637.224 258.132Z" fill="#EB996E"/>
<path d="M641.189 230.916C641.754 230.234 642.485 229.708 643.312 229.39C644.138 229.073 645.033 228.973 645.91 229.102C646.547 229.173 647.164 229.374 647.721 229.692C648.279 230.009 648.766 230.437 649.152 230.95C649.529 231.442 649.745 232.037 649.772 232.656C649.799 233.275 649.636 233.888 649.303 234.41C648.823 234.918 648.201 235.271 647.519 235.424C646.837 235.577 646.124 235.522 645.473 235.267C644.118 234.748 642.879 233.966 641.827 232.966C641.507 232.72 641.234 232.418 641.021 232.075C640.913 231.917 640.856 231.729 640.856 231.538C640.856 231.346 640.913 231.159 641.021 231" fill="#EB996E"/>
<path d="M648.614 226.128C648.144 226.128 648.06 229.236 645.254 231.386C642.449 233.537 639.173 233.066 639.122 233.554C639.072 234.041 639.862 234.192 641.273 234.259C643.098 234.308 644.882 233.713 646.313 232.579C647.718 231.502 648.642 229.915 648.883 228.161C649.169 226.901 648.833 226.111 648.614 226.128Z" fill="#263238"/>
<path d="M650.983 193.906C651.235 194.712 654.141 194.41 657.535 194.914C660.929 195.418 663.65 196.409 664.121 195.72C664.322 195.384 663.869 194.628 662.777 193.838C661.333 192.847 659.675 192.214 657.938 191.99C656.2 191.74 654.428 191.901 652.764 192.461C651.504 192.931 650.865 193.536 650.983 193.906Z" fill="#263238"/>
<path d="M623.935 188.731C624.439 189.403 626.438 188.731 628.841 188.731C631.243 188.731 633.276 189.285 633.746 188.613C633.965 188.277 633.662 187.622 632.789 186.933C631.628 186.138 630.247 185.727 628.841 185.757C627.43 185.736 626.049 186.16 624.893 186.967C624.019 187.74 623.717 188.412 623.935 188.731Z" fill="#263238"/>
<path d="M693.403 182.011C690.043 169.73 673.243 152.174 660.576 152.477L639.778 163.716C640.279 167.2 641.713 170.484 643.928 173.219C646.144 175.955 649.057 178.041 652.361 179.256C655.889 180.516 660.19 180.936 662.172 184.195C664.154 187.454 662.726 191.957 664.608 195.283C667.195 199.903 674.873 200.038 676.754 205.01C677.578 207.161 676.99 209.681 677.846 211.831C679.006 214.704 685.944 218.551 688.918 217.778C691.891 217.006 692.143 211.982 693.218 209.378C694.562 206.478 694.865 203.202 694.075 200.105C693.067 194.124 694.982 187.874 693.403 182.011Z" fill="#263238"/>
<path d="M680.131 219.861C680.131 218.299 682.097 214.67 683.642 214.469C687.775 213.931 695.201 214.469 694.999 224.935C694.714 239.249 680.4 236.006 680.383 235.603C680.366 235.2 679.98 225.271 680.131 219.861Z" fill="#FFBE9D"/>
<path d="M684.852 230.261C684.852 230.261 685.104 230.445 685.524 230.647C686.112 230.913 686.779 230.943 687.389 230.731C688.918 230.193 690.228 227.825 690.346 225.237C690.408 224.013 690.195 222.791 689.724 221.659C689.6 221.21 689.368 220.798 689.049 220.459C688.73 220.119 688.333 219.862 687.893 219.71C687.606 219.624 687.299 219.643 687.025 219.763C686.751 219.883 686.529 220.097 686.398 220.365C686.196 220.752 686.28 221.037 686.213 221.071C686.146 221.105 685.911 220.819 686.028 220.231C686.122 219.878 686.329 219.566 686.616 219.341C687.02 219.052 687.52 218.932 688.011 219.005C688.593 219.137 689.132 219.414 689.578 219.811C690.025 220.207 690.364 220.71 690.564 221.273C691.154 222.526 691.426 223.905 691.354 225.288C691.202 228.177 689.674 230.849 687.591 231.403C687.205 231.503 686.802 231.518 686.41 231.445C686.018 231.373 685.647 231.215 685.322 230.983C684.886 230.613 684.802 230.294 684.852 230.261Z" fill="#EB996E"/>
<path d="M705.13 201.869C705.637 200.508 705.909 199.07 705.936 197.618C706.473 190.564 704.608 183.536 700.644 177.677C699.905 176.406 698.957 175.27 697.838 174.317C697.553 174.485 702.038 179.541 704.054 187.37C706.07 195.199 704.81 201.852 705.13 201.869Z" fill="#13CD61"/>
<path d="M644.213 159.6C642.533 165.329 633.192 172.2 629.093 176.4C621.13 184.548 619.651 185.741 618.055 211.68C614.732 203.355 613.265 194.406 613.754 185.455C614.443 177.946 617.827 170.94 623.28 165.732C626.051 163.151 629.387 161.253 633.021 160.188C636.655 159.124 640.487 158.922 644.213 159.6" fill="#263238"/>
<path d="M700.694 182.297C699.888 182.528 699.061 182.68 698.225 182.75C697.435 182.868 696.461 183.002 695.301 183.07C694.142 183.137 692.865 183.271 691.421 183.254C688.052 183.32 684.682 183.135 681.341 182.7C677.226 182.144 673.163 181.251 669.194 180.029C665.244 178.757 661.402 177.173 657.703 175.291C654.699 173.722 651.813 171.937 649.068 169.949C647.875 169.142 646.884 168.269 645.993 167.58C645.103 166.891 644.314 166.202 643.776 165.648C643.134 165.104 642.539 164.509 641.995 163.867C642.706 164.316 643.375 164.828 643.994 165.396C644.599 165.917 645.355 166.538 646.279 167.194C647.203 167.849 648.211 168.689 649.421 169.462C652.189 171.333 655.079 173.017 658.073 174.502C661.742 176.332 665.544 177.882 669.446 179.138C673.374 180.328 677.383 181.232 681.441 181.843C684.782 182.306 688.149 182.548 691.521 182.566C692.949 182.566 694.243 182.566 695.386 182.566C696.528 182.566 697.502 182.482 698.292 182.398C699.089 182.299 699.892 182.265 700.694 182.297Z" fill="#455A64"/>
<path d="M701.518 192.645C700.97 192.805 700.407 192.9 699.838 192.931C698.293 193.113 696.739 193.209 695.184 193.217C684.867 193.321 674.715 190.633 665.801 185.438C664.463 184.662 663.168 183.815 661.92 182.901C661.43 182.599 660.984 182.232 660.593 181.809C660.677 181.692 662.676 183.069 666.103 184.917C675.056 189.752 685.029 192.389 695.201 192.612C699.082 192.713 701.501 192.494 701.518 192.645Z" fill="#455A64"/>
<path d="M705.096 193.2C705.308 193.904 705.426 194.632 705.449 195.367C705.583 196.795 705.667 198.845 705.65 201.382C705.611 204.357 705.42 207.329 705.079 210.286C704.692 213.918 703.967 217.507 702.912 221.004C700.808 227.42 696.514 232.891 690.782 236.46C689.051 237.492 687.216 238.337 685.306 238.98C684.618 239.25 683.902 239.441 683.172 239.551C683.815 239.192 684.49 238.894 685.188 238.661C687.019 237.902 688.784 236.992 690.463 235.939C692.931 234.359 695.117 232.377 696.931 230.076C699.208 227.313 700.951 224.152 702.072 220.752C703.115 217.301 703.852 213.765 704.273 210.185C704.693 206.825 704.911 203.885 705.029 201.365C705.146 198.845 705.146 196.795 705.029 195.401C704.996 194.666 705.019 193.931 705.096 193.2V193.2Z" fill="#455A64"/>
<path d="M508.469 275.856L549.998 317.856C555.458 316.596 622.474 276.545 622.474 276.545L633.074 328.087C633.074 328.087 564.48 359.671 545.614 355.841C542.522 355.219 537.466 354.816 534.274 350.801C519.12 331.33 490.56 290.472 490.56 290.472L508.469 275.856Z" fill="#FFBE9D"/>
<path d="M562.934 661.231L583.43 705.667L616.51 690.379L595.308 635.393L562.934 661.231Z" fill="#FFBE9D"/>
<path d="M579.6 702.693L591.578 725.541C591.578 725.541 560.868 757.243 563.758 764.4L635.83 729.842L616.022 684.029L579.6 702.693Z" fill="#455A64"/>
<path d="M612.326 711.732C613.118 711.632 613.92 711.817 614.588 712.254C615.256 712.691 615.747 713.352 615.972 714.118C616.124 714.907 615.966 715.724 615.531 716.4C615.097 717.076 614.418 717.558 613.637 717.746C612.793 717.894 611.925 717.713 611.21 717.241C610.495 716.77 609.987 716.043 609.79 715.21C609.718 714.371 609.973 713.537 610.503 712.883C611.032 712.228 611.794 711.804 612.629 711.698" fill="#E0E0E0"/>
<g opacity="0.6">
<path opacity="0.6" d="M635.83 729.775L632.822 724.08L564.85 759.36C564.85 759.36 562.313 762.3 563.758 764.4L635.83 729.775Z" fill="white"/>
</g>
<path d="M590.184 725.76C590.369 726.113 592.2 725.424 594.485 725.76C596.77 726.096 598.382 727.104 598.634 726.801C598.886 726.499 597.391 724.735 594.636 724.416C591.881 724.097 589.949 725.441 590.184 725.76Z" fill="#263238"/>
<path d="M584.119 732.48C584.203 732.866 586.018 732.732 587.933 733.656C589.848 734.58 590.94 735.974 591.293 735.789C591.646 735.605 590.907 733.505 588.521 732.429C586.135 731.354 583.968 732.144 584.119 732.48Z" fill="#263238"/>
<path d="M584.169 743.585C584.522 743.585 584.17 741.518 582.338 740.023C580.507 738.528 578.508 738.561 578.491 738.914C578.474 739.267 580.003 739.821 581.481 741.082C582.96 742.342 583.8 743.719 584.169 743.585Z" fill="#263238"/>
<path d="M586.757 716.94C587.059 717.192 588.437 715.932 590.486 715.109C592.536 714.286 594.384 714.168 594.434 713.782C594.485 713.395 592.385 712.858 589.966 713.782C587.546 714.706 586.438 716.738 586.757 716.94Z" fill="#263238"/>
<path d="M561.305 685.44L510.25 546.622C510.25 546.622 511.459 523.555 515.71 516.264C519.96 508.973 648.681 466.469 648.681 466.469C648.681 466.469 681.475 458.573 703.332 466.469C725.189 474.365 747.398 484.109 745.214 499.43C744.862 501.772 744.3 504.078 743.534 506.318C739.858 517.107 732.961 526.509 723.775 533.256C714.589 540.003 703.554 543.771 692.16 544.051L675.058 546L588.286 562.565C587.381 562.75 586.524 563.119 585.769 563.65C585.013 564.18 584.375 564.861 583.895 565.649C583.414 566.437 583.101 567.316 582.974 568.231C582.848 569.145 582.912 570.076 583.161 570.965L611.184 664.356C611.184 664.356 580.574 679.291 561.305 685.44Z" fill="#263238"/>
<path d="M516.214 589.377L515.004 638.299L551.426 639.189L556.685 580.49L516.214 589.377Z" fill="#FFBE9D"/>
<path d="M515.004 631.781L513.492 659.702C513.492 659.702 471.996 674.621 471.492 682.248L551.426 683.054L553.879 633.209L515.004 631.781Z" fill="#455A64"/>
<path d="M513.122 643.961C513.002 643.492 513.002 643.001 513.122 642.533C513.392 641.209 513.967 639.966 514.802 638.904C515.064 638.503 515.388 638.146 515.76 637.846C516.008 637.644 516.3 637.505 516.613 637.44C516.926 637.376 517.25 637.388 517.558 637.476C517.735 637.53 517.897 637.623 518.034 637.748C518.171 637.873 518.278 638.027 518.347 638.198C518.466 638.512 518.466 638.859 518.347 639.173C518.115 639.686 517.834 640.175 517.507 640.634C516.886 641.575 516.365 642.516 515.575 643.574C515.32 643.884 514.99 644.125 514.618 644.275C514.245 644.424 513.84 644.478 513.442 644.431C512.699 644.33 511.99 644.054 511.375 643.625C510.27 642.902 509.249 642.057 508.334 641.105C507.909 640.665 507.51 640.199 507.142 639.71C506.718 639.225 506.408 638.651 506.234 638.03C506.164 637.686 506.218 637.328 506.387 637.02C506.556 636.712 506.83 636.475 507.158 636.35C507.479 636.265 507.816 636.254 508.142 636.318C508.468 636.382 508.775 636.519 509.04 636.72C509.804 637.312 510.487 638.001 511.073 638.77C511.897 639.821 512.565 640.987 513.055 642.23C513.265 642.667 513.385 643.141 513.408 643.625C512.594 642.042 511.632 640.54 510.535 639.139C509.961 638.448 509.307 637.828 508.586 637.291C508.429 637.163 508.244 637.072 508.046 637.025C507.848 636.979 507.642 636.978 507.444 637.022C507.278 637.093 507.145 637.225 507.073 637.391C507.002 637.556 506.996 637.743 507.058 637.913C507.237 638.39 507.505 638.828 507.847 639.206C508.21 639.669 508.597 640.112 509.006 640.534C509.884 641.417 510.852 642.206 511.896 642.886C512.396 643.238 512.971 643.468 513.576 643.558C513.82 643.594 514.069 643.563 514.297 643.468C514.525 643.373 514.723 643.218 514.87 643.02C515.542 642.163 516.18 641.088 516.785 640.198C517.092 639.792 517.362 639.359 517.591 638.904C517.759 638.484 517.591 638.232 517.339 638.114C516.617 637.845 515.911 638.585 515.424 639.206C514.338 640.616 513.555 642.235 513.122 643.961V643.961Z" fill="#263238"/>
<path d="M538.255 656.494C539.009 656.753 539.647 657.273 540.053 657.959C540.459 658.645 540.608 659.454 540.473 660.24C540.256 661.012 539.753 661.673 539.066 662.088C538.38 662.503 537.561 662.641 536.777 662.474C535.953 662.234 535.251 661.688 534.817 660.948C534.383 660.208 534.249 659.329 534.441 658.493C534.744 657.705 535.341 657.067 536.106 656.712C536.871 656.358 537.745 656.315 538.541 656.594" fill="#E0E0E0"/>
<g opacity="0.6">
<path opacity="0.6" d="M551.376 683.054L551.225 676.57L474.65 678.25C474.65 678.25 471.072 679.762 471.442 682.282L551.376 683.054Z" fill="white"/>
</g>
<path d="M512.215 659.282C512.215 659.669 514.164 659.87 516.079 661.147C517.994 662.424 518.985 664.07 519.355 663.919C519.725 663.768 519.153 661.517 516.818 660.005C514.483 658.493 512.131 658.929 512.215 659.282Z" fill="#263238"/>
<path d="M503.782 662.659C503.698 663.046 505.378 663.717 506.688 665.381C507.998 667.044 508.368 668.741 508.754 668.741C509.141 668.741 509.41 666.523 507.746 664.49C506.083 662.458 503.798 662.29 503.782 662.659Z" fill="#263238"/>
<path d="M498.96 672.655C499.313 672.739 499.884 670.79 498.96 668.64C498.036 666.49 496.171 665.633 496.003 665.952C495.835 666.271 496.944 667.43 497.683 669.211C498.422 670.992 498.54 672.605 498.96 672.655Z" fill="#263238"/>
<path d="M513.005 649.874C513.173 650.227 514.97 649.706 517.171 649.874C519.372 650.042 521.086 650.765 521.287 650.429C521.489 650.093 519.859 648.749 517.255 648.53C514.651 648.312 512.82 649.555 513.005 649.874Z" fill="#263238"/>
<path d="M537.499 453.6C537.499 453.6 515.659 451.92 513.24 475.524C510.821 499.128 499.414 608.966 499.414 608.966L559.423 614.006L567.319 501.06L648.682 466.452C648.682 466.452 552.065 450.542 537.499 453.6Z" fill="#263238"/>
<path d="M627.446 421.68C627.446 421.68 614.208 458.808 616.728 462.941C619.248 467.074 653.318 484.126 653.318 484.126L738.545 516.852C738.545 516.852 747.298 502.925 747.298 481.572C747.298 460.219 717.662 421.68 717.662 421.68H627.446Z" fill="#263238"/>
<path d="M652.714 464.52C652.586 464.601 652.451 464.668 652.31 464.722L651.101 465.293L646.38 467.393L628.673 475.104L567.504 501.43L567.773 501.043C567 512.198 566.093 524.261 565.303 536.726C563.237 565.858 561.322 592.721 559.81 614.006V614.393H559.423L522.278 611.134L512.047 610.176L509.376 609.907C509.065 609.887 508.756 609.842 508.452 609.773C508.759 609.747 509.068 609.747 509.376 609.773L512.064 609.941L522.312 610.697L559.44 613.57L559.037 613.922C560.498 592.67 562.397 565.79 564.346 536.642C565.219 524.177 566.026 512.114 566.849 500.976V500.64L567.101 500.522L628.404 474.516L646.262 467.04L651.05 465.074L652.294 464.587L652.714 464.52Z" fill="#455A64"/>
<path d="M720.502 468.233C719.689 468.081 718.892 467.862 718.116 467.577L711.698 465.511C704.692 463.131 697.507 461.317 690.211 460.085C682.927 458.882 675.489 458.973 668.237 460.353C662.676 461.513 659.484 463.092 659.417 462.907C660.11 462.452 660.854 462.08 661.634 461.798C663.718 460.908 665.877 460.205 668.086 459.698C675.409 458.102 682.969 457.914 690.362 459.144C697.705 460.374 704.916 462.292 711.9 464.873C714.588 465.813 716.755 466.637 718.234 467.225C719.022 467.482 719.782 467.82 720.502 468.233V468.233Z" fill="#455A64"/>
<path d="M708.456 448.644C705.972 448.503 703.481 448.503 700.997 448.644C698.712 448.795 695.957 449.148 692.933 449.501C689.909 449.854 686.566 450.274 683.122 450.929C677.2 451.871 671.524 453.978 666.422 457.128C664.374 458.535 662.437 460.096 660.626 461.798C660.943 461.177 661.357 460.609 661.853 460.118C663.113 458.767 664.516 457.556 666.036 456.506C671.136 453.132 676.898 450.887 682.937 449.921C686.431 449.266 689.791 448.879 692.832 448.56C695.873 448.241 698.628 447.972 700.963 447.905C702.809 447.819 704.66 447.903 706.49 448.157C707.167 448.217 707.83 448.381 708.456 448.644V448.644Z" fill="#455A64"/>
<path d="M584.64 712.32C584.317 711.891 584.088 711.399 583.968 710.875C583.559 709.463 583.444 707.982 583.632 706.524C583.68 706.019 583.793 705.522 583.968 705.046C584.087 704.743 584.283 704.477 584.536 704.274C584.79 704.07 585.092 703.937 585.413 703.886C585.608 703.864 585.806 703.886 585.992 703.95C586.178 704.014 586.347 704.118 586.488 704.256C586.732 704.534 586.884 704.88 586.925 705.247C586.976 705.856 586.976 706.469 586.925 707.078C586.824 708.288 586.824 709.464 586.639 710.875C586.574 711.283 586.401 711.667 586.138 711.986C585.876 712.305 585.532 712.548 585.144 712.689C584.407 712.909 583.627 712.938 582.876 712.773C581.517 712.545 580.191 712.15 578.928 711.597C578.324 711.346 577.735 711.06 577.164 710.741C576.556 710.448 576.014 710.037 575.568 709.531C575.316 709.229 575.179 708.849 575.179 708.456C575.179 708.063 575.316 707.683 575.568 707.381C575.822 707.148 576.13 706.982 576.465 706.9C576.8 706.818 577.15 706.821 577.483 706.91C578.476 707.179 579.43 707.575 580.322 708.086C581.608 708.773 582.785 709.644 583.817 710.673C584.216 711.022 584.551 711.437 584.808 711.9C583.315 710.679 581.712 709.599 580.02 708.674C579.172 708.257 578.282 707.93 577.365 707.7C576.895 707.7 576.391 707.7 576.206 707.935C576.095 708.095 576.044 708.289 576.063 708.483C576.081 708.676 576.168 708.857 576.307 708.993C576.689 709.392 577.146 709.712 577.651 709.934C578.193 710.24 578.754 710.509 579.331 710.741C580.539 711.248 581.802 711.614 583.094 711.833C583.679 711.977 584.29 711.977 584.875 711.833C585.112 711.75 585.322 711.602 585.479 711.406C585.636 711.21 585.736 710.973 585.765 710.724C585.933 709.565 585.984 708.204 586.101 707.045C586.169 706.487 586.198 705.926 586.185 705.365C586.185 704.877 585.917 704.659 585.564 704.676C584.791 704.676 584.505 705.785 584.371 706.625C584.094 708.523 584.185 710.456 584.64 712.32V712.32Z" fill="#263238"/>
<path d="M625.346 275.302C619.339 277.629 614.331 281.978 611.184 287.599C605.875 297.024 607.303 301.661 608.681 307.222C610.058 312.782 612.528 323.82 612.662 323.114C612.797 322.409 625.346 275.302 625.346 275.302Z" fill="#FFBE9D"/>
<path d="M715.193 292.085C715.193 292.085 708.238 275.285 706.793 273.739L681.123 267.254L665.079 275.117C660.45 277.463 655.266 278.491 650.093 278.09C644.347 277.553 639.307 275.234 636.771 270.984L626.691 273.706C626.691 273.706 610.764 321.77 611.083 335.076C611.403 348.382 616.947 386.182 616.308 393.641C615.67 401.1 618.375 421.68 627.447 421.68H717.663C717.663 421.68 738.024 416.035 738.915 403.788C739.805 391.541 715.193 292.085 715.193 292.085Z" fill="#13CD61"/>
<path d="M686.448 365.03C686.007 365.525 685.498 365.955 684.936 366.307C683.469 367.36 681.905 368.271 680.266 369.029C677.825 370.162 675.233 370.937 672.571 371.33C669.292 371.804 665.953 371.662 662.726 370.91C656.896 369.42 651.593 366.344 647.405 362.023C646.137 360.749 644.964 359.385 643.894 357.941C643.47 357.428 643.115 356.864 642.835 356.261C642.97 356.16 644.599 358.462 647.875 361.536C652.101 365.601 657.312 368.495 662.995 369.936C668.703 371.233 674.675 370.68 680.047 368.357C684.13 366.643 686.347 364.862 686.448 365.03Z" fill="#263238"/>
<g opacity="0.3">
<path opacity="0.3" d="M644.347 358.344C644.969 365.243 648.297 371.615 653.604 376.068C656.265 378.235 659.4 379.745 662.754 380.475C666.107 381.205 669.586 381.134 672.907 380.268C676.209 379.324 679.186 377.489 681.512 374.964C683.839 372.439 685.425 369.322 686.095 365.954C681.551 368.29 676.706 369.986 671.698 370.994C666.29 371.718 660.789 370.861 655.859 368.527C650.928 366.192 646.778 362.481 643.91 357.84L644.633 358.613" fill="black"/>
</g>
<g opacity="0.3">
<path opacity="0.3" d="M720.25 372.96C710.724 354.48 700.644 335.328 683.979 322.896C687.675 335.53 690.984 347.407 695.067 359.856C696.226 363.401 698.057 367.534 701.787 368.122C703.147 368.34 704.542 368.004 705.886 368.273C708.204 368.726 709.783 370.793 711.027 372.792C712.037 374.928 713.626 376.738 715.613 378.017C717.73 379.058 720.955 378.017 721.157 375.732C721.12 374.741 720.806 373.781 720.25 372.96Z" fill="black"/>
</g>
<path d="M747.298 337.68L701.854 358.982C701.854 358.982 681.694 318.662 680.131 313.068C678.569 307.474 675.091 297.948 680.249 286.188C682.557 281.193 686.586 277.196 691.599 274.929C696.612 272.661 702.274 272.275 707.549 273.84C727.591 280.997 747.298 337.68 747.298 337.68Z" fill="#13CD61"/>
<path d="M615.518 337.68C613.401 337.68 589.025 350.431 589.025 350.431L572.88 303.61C593.829 292.253 617.114 276.226 629.227 272.966L618.693 309.523L615.518 337.68Z" fill="#13CD61"/>
<path d="M706.306 356.16C714.907 370.305 720.922 378.437 720.922 378.437L643.726 425.477L652.714 446.376L746.558 407.736C749.714 406.482 752.528 404.497 754.768 401.945C757.008 399.392 758.61 396.345 759.444 393.053C760.216 389.959 760.141 386.715 759.226 383.661L743.266 339.612L706.306 356.16Z" fill="#FFBE9D"/>
<path d="M739.704 385.627C736.751 383.792 733.662 382.186 730.464 380.822C725.071 378.789 720.3 378.739 720.384 378.437C723.941 378.183 727.512 378.693 730.856 379.933C734.2 381.174 737.24 383.115 739.771 385.627H739.704Z" fill="#EB996E"/>
<path d="M618.324 296.033C617.806 296.697 617.367 297.418 617.014 298.183C616.01 300.189 615.173 302.273 614.51 304.416C612.416 311.373 611.137 318.55 610.697 325.802C610.144 332.997 610.228 340.227 610.949 347.407C611.163 349.591 611.5 351.762 611.957 353.909C612.078 354.715 612.292 355.504 612.595 356.261C612.615 355.453 612.536 354.646 612.36 353.858C612.158 352.33 611.89 350.112 611.705 347.374C611.191 340.209 611.191 333.017 611.705 325.853C612.162 318.661 613.327 311.531 615.182 304.567C615.783 302.438 616.506 300.346 617.35 298.301C617.757 297.583 618.083 296.822 618.324 296.033V296.033Z" fill="#263238"/>
<path d="M583.817 439.774L603.12 430.567L640.685 427.577L643.759 425.46L652.747 446.359C652.747 446.359 642.902 451.063 637.745 451.483L606.144 450.526L589.63 452.206L583.817 439.774Z" fill="#FFBE9D"/>
<path d="M747.298 337.68C746.988 337.748 746.689 337.855 746.407 337.999L743.887 339.057L734.698 343.14L704.458 356.899L700.778 358.579L701.35 358.781C696.108 347.978 691.522 338.301 688.262 331.313C686.683 327.953 685.406 325.113 684.466 323.064L683.441 320.829C683.337 320.559 683.195 320.305 683.021 320.073C683.082 320.354 683.166 320.63 683.273 320.897C683.474 321.417 683.76 322.19 684.163 323.181C684.953 325.181 686.162 328.037 687.725 331.581C690.833 338.637 695.335 348.381 700.577 359.184L700.762 359.57L701.148 359.385L704.827 357.705L734.882 343.728L743.954 339.393L746.407 338.167C746.721 338.039 747.02 337.875 747.298 337.68V337.68Z" fill="#263238"/>
<path d="M705.482 273.958C705.482 274.126 703.349 274.058 700.056 274.848C695.777 275.856 691.83 277.948 688.594 280.922C685.357 283.897 682.94 287.654 681.576 291.833C680.484 295.042 680.366 297.175 680.198 297.158C680.122 296.663 680.122 296.159 680.198 295.663C680.332 294.304 680.591 292.96 680.971 291.648C682.232 287.278 684.675 283.34 688.031 280.269C691.386 277.198 695.524 275.113 699.989 274.243C701.283 273.984 702.6 273.849 703.92 273.84C704.444 273.791 704.972 273.831 705.482 273.958V273.958Z" fill="#263238"/>
<path d="M731.606 303.24C731.49 303.935 731.287 304.612 731.002 305.256C730.388 307.079 729.517 308.804 728.414 310.38L727.222 311.875L726.566 312.682L725.794 313.404L724.114 314.899L722.165 316.226C719.178 318.045 715.948 319.431 712.572 320.342C705.449 322.342 698.846 323.282 694.277 324.71C691.807 325.484 689.384 326.398 687.019 327.449C687.565 327.003 688.163 326.625 688.8 326.323C689.508 325.909 690.25 325.554 691.018 325.265L692.446 324.66L694.126 324.122C698.712 322.442 705.331 321.468 712.37 319.502C715.672 318.613 718.836 317.279 721.778 315.538L723.694 314.278L725.374 312.866C725.626 312.631 725.894 312.43 726.13 312.194L726.768 311.438L727.978 310.027C729.092 308.507 730.023 306.86 730.75 305.122C730.971 304.467 731.258 303.837 731.606 303.24Z" fill="white"/>
<path d="M725.626 292.538C724.977 292.612 724.339 292.765 723.727 292.992C722.128 293.758 720.808 295.003 719.947 296.553C719.342 297.511 718.738 298.603 717.931 299.729C717.054 300.905 716.026 301.961 714.874 302.87C712.191 304.874 709.152 306.35 705.919 307.221C702.559 308.246 699.199 308.901 696.326 309.557C693.73 310.144 691.194 310.971 688.75 312.026C686.536 313.072 684.474 314.411 682.618 316.008C682.618 316.008 682.702 315.84 682.92 315.588C683.237 315.206 683.579 314.847 683.945 314.513C685.305 313.277 686.839 312.246 688.498 311.455C690.945 310.299 693.507 309.404 696.142 308.784C699.082 308.011 702.358 307.389 705.667 306.381C708.794 305.532 711.741 304.126 714.37 302.232C715.486 301.387 716.486 300.398 717.343 299.292C718.133 298.25 718.771 297.158 719.443 296.217C720.398 294.604 721.864 293.356 723.61 292.673C724.088 292.499 724.596 292.419 725.105 292.437C725.441 292.454 725.626 292.505 725.626 292.538Z" fill="white"/>
<path d="M688.968 332.942C688.751 333.106 688.514 333.241 688.262 333.346L686.129 334.337C684.281 335.177 681.576 336.37 678.182 337.697C674.203 339.273 670.108 340.542 665.935 341.494C660.797 342.705 655.488 343.018 650.244 342.418C645.055 341.564 639.981 340.116 635.124 338.1C631.187 336.538 627.092 335.411 622.91 334.74C620.092 334.322 617.224 334.384 614.426 334.925C612.444 335.345 611.402 335.815 611.386 335.731C611.369 335.647 611.621 335.58 612.108 335.345C612.833 335.038 613.58 334.785 614.342 334.589C617.168 333.909 620.094 333.75 622.978 334.118C627.227 334.716 631.393 335.804 635.393 337.361C640.208 339.303 645.222 340.712 650.345 341.561C655.491 342.142 660.698 341.858 665.75 340.721C669.894 339.811 673.969 338.616 677.947 337.142C681.307 335.899 684.096 334.807 685.978 334.051L688.162 333.211C688.414 333.078 688.686 332.988 688.968 332.942Z" fill="white"/>
<path d="M614.393 317.52C614.393 317.52 614.578 317.335 614.981 317.049C615.582 316.656 616.224 316.329 616.896 316.075C619.398 315.134 622.101 314.856 624.742 315.269C628.632 315.864 632.37 317.211 635.746 319.234C639.764 321.729 643.952 323.941 648.278 325.853C652.722 327.429 657.428 328.136 662.138 327.936C665.995 327.792 669.832 327.331 673.613 326.558C676.855 325.937 679.476 325.315 681.274 324.878C682.199 324.62 683.142 324.435 684.096 324.324C683.206 324.688 682.291 324.985 681.358 325.214C679.577 325.735 676.99 326.441 673.747 327.146C669.938 328.015 666.058 328.543 662.155 328.725C657.339 328.977 652.52 328.275 647.976 326.659C643.609 324.737 639.392 322.49 635.359 319.939C632.078 317.93 628.447 316.556 624.658 315.89C622.107 315.433 619.482 315.606 617.014 316.394C615.283 316.949 614.443 317.52 614.393 317.52Z" fill="white"/>
<path d="M605.741 341.41C605.741 341.41 605.556 341.41 605.22 341.41C604.731 341.313 604.252 341.166 603.792 340.973C602.069 340.226 600.553 339.073 599.374 337.613C597.606 335.509 596.322 333.043 595.61 330.389C594.829 327.159 594.423 323.85 594.401 320.527C594.374 317.259 594.116 313.998 593.628 310.766C593.16 308.157 592.227 305.654 590.873 303.374C589.575 301.294 587.787 299.564 585.665 298.334C585.665 298.334 585.85 298.334 586.169 298.486C586.635 298.664 587.085 298.883 587.513 299.141C589.063 300.16 590.375 301.5 591.36 303.072C592.84 305.376 593.867 307.942 594.384 310.632C594.931 313.903 595.218 317.211 595.241 320.527C595.261 323.789 595.633 327.039 596.35 330.221C597.009 332.78 598.187 335.175 599.81 337.26C600.92 338.655 602.311 339.8 603.893 340.62C605.052 341.174 605.758 341.326 605.741 341.41Z" fill="white"/>
<path d="M610.344 329.482C609.426 327.707 608.618 325.878 607.925 324.005L602.297 310.8C600.046 305.642 597.962 300.989 596.366 297.679C594.77 294.37 593.662 292.37 593.762 292.303C594.153 292.681 594.481 293.118 594.737 293.597C595.291 294.47 596.047 295.764 596.921 297.394C598.601 300.653 600.852 305.273 603.103 310.447C605.354 315.622 607.219 320.359 608.496 323.887C609.134 325.567 609.622 327.029 609.941 328.02C610.138 328.488 610.273 328.979 610.344 329.482V329.482Z" fill="white"/>
<path d="M475.44 365.602L583.766 366.492C587.278 366.492 590.638 368.172 591.158 371.65L603.002 450.61H658.795C659.66 450.61 660.489 450.953 661.1 451.564C661.711 452.175 662.054 453.004 662.054 453.869C662.054 454.733 661.711 455.562 661.1 456.173C660.489 456.785 659.66 457.128 658.795 457.128H480.665L468.485 373.8C468.328 372.792 468.39 371.762 468.667 370.781C468.943 369.799 469.428 368.888 470.088 368.11C470.748 367.333 471.567 366.706 472.491 366.273C473.414 365.84 474.42 365.611 475.44 365.602V365.602Z" fill="#E0E0E0"/>
<path d="M475.44 365.602C474.875 365.578 474.309 365.635 473.76 365.77C472.099 366.159 470.633 367.131 469.627 368.508C468.885 369.524 468.421 370.718 468.283 371.969C468.259 373.463 468.394 374.955 468.686 376.421L470.249 387.425C472.634 403.973 476.062 427.745 480.329 457.162V457.447H480.631L653.503 457.548H658.157C659.008 457.628 659.864 457.465 660.626 457.078C661.2 456.757 661.678 456.289 662.01 455.722C662.343 455.155 662.518 454.509 662.518 453.852C662.518 453.195 662.343 452.549 662.01 451.982C661.678 451.415 661.2 450.947 660.626 450.626C659.873 450.249 659.03 450.086 658.19 450.156H603.12L603.54 450.526C599.273 422.251 595.291 395.875 591.78 372.204C591.673 370.624 590.956 369.148 589.781 368.088C588.599 367.096 587.16 366.461 585.631 366.257C584.18 366.115 582.721 366.065 581.263 366.106H577.013L560.7 365.988L531.72 365.82L490.459 365.602H475.44C475.44 365.602 475.759 365.602 476.414 365.602H479.253L490.291 365.753L531.552 366.206L560.532 366.492L576.845 366.66H581.095C582.519 366.626 583.944 366.676 585.362 366.811C586.756 367.002 588.067 367.584 589.142 368.491C590.159 369.467 590.761 370.796 590.822 372.204C594.367 395.858 598.298 422.251 602.582 450.526V450.895H658.022C658.714 450.822 659.413 450.944 660.038 451.248C660.625 451.578 661.075 452.105 661.309 452.736C661.543 453.366 661.545 454.06 661.315 454.692C661.086 455.32 660.639 455.844 660.055 456.17C659.422 456.488 658.71 456.617 658.006 456.54H653.52L480.648 456.641L480.967 456.926C476.633 427.61 473.088 403.771 470.635 387.223C470.014 383.107 469.459 379.428 468.955 376.253C468.639 374.808 468.492 373.33 468.518 371.851C468.629 370.641 469.058 369.482 469.762 368.491C470.726 367.121 472.151 366.143 473.777 365.736C474.329 365.664 474.884 365.619 475.44 365.602V365.602Z" fill="#263238"/>
<path d="M529.469 417.144C533.217 417.144 536.256 414.105 536.256 410.357C536.256 406.608 533.217 403.57 529.469 403.57C525.72 403.57 522.682 406.608 522.682 410.357C522.682 414.105 525.72 417.144 529.469 417.144Z" fill="white"/>
<path d="M598.685 456.372C598.517 456.372 595.073 436.296 590.974 411.482C586.874 386.669 583.682 366.509 583.834 366.492C583.985 366.475 587.429 386.568 591.528 411.382C595.627 436.195 598.836 456.355 598.685 456.372Z" fill="#263238"/>
<path d="M57.1201 803.04C57.1201 802.805 219.627 802.603 420 802.603C620.374 802.603 782.88 802.738 782.88 803.04C782.88 803.342 620.407 803.477 420 803.477C219.593 803.477 57.1201 803.208 57.1201 803.04Z" fill="#263238"/>
</svg>
