<svg width="109" height="16" viewBox="0 0 109 16" fill="none" xmlns="http://www.w3.org/2000/svg">
<path d="M0.673828 11.0742H2.83203C2.91016 11.7708 3.25846 12.3307 3.87695 12.7539C4.49544 13.1771 5.27018 13.3887 6.20117 13.3887C7.08659 13.3887 7.81576 13.1836 8.38867 12.7734C8.9681 12.3633 9.25781 11.8424 9.25781 11.2109C9.25781 10.6641 9.05273 10.2181 8.64258 9.87305C8.23242 9.52148 7.57161 9.23503 6.66016 9.01367L4.83398 8.57422C3.53841 8.26172 2.58138 7.79622 1.96289 7.17773C1.35091 6.55924 1.04492 5.75846 1.04492 4.77539C1.04492 3.56445 1.52018 2.57812 2.4707 1.81641C3.42773 1.05469 4.66146 0.673828 6.17188 0.673828C7.65625 0.673828 8.86719 1.05469 9.80469 1.81641C10.7422 2.57161 11.2272 3.55794 11.2598 4.77539H9.13086C9.06576 4.07878 8.76302 3.52865 8.22266 3.125C7.6888 2.72135 6.99544 2.51953 6.14258 2.51953C5.29622 2.51953 4.60612 2.71484 4.07227 3.10547C3.54492 3.49609 3.28125 4.00391 3.28125 4.62891C3.28125 5.1237 3.47982 5.5306 3.87695 5.84961C4.27409 6.16211 4.92839 6.43229 5.83984 6.66016L7.39258 7.04102C8.83789 7.37956 9.87956 7.85807 10.5176 8.47656C11.1621 9.08854 11.4844 9.91211 11.4844 10.9473C11.4844 12.2624 10.9961 13.3073 10.0195 14.082C9.04297 14.8503 7.7181 15.2344 6.04492 15.2344C4.47591 15.2344 3.20312 14.86 2.22656 14.1113C1.25651 13.3561 0.738932 12.3438 0.673828 11.0742ZM19.2773 6.98242C18.8151 6.48763 18.2194 6.24023 17.4902 6.24023C16.7611 6.24023 16.1556 6.49089 15.6738 6.99219C15.1921 7.48698 14.9251 8.12826 14.873 8.91602H20.0098C19.9837 8.12174 19.7396 7.47721 19.2773 6.98242ZM20 11.9824H22.002C21.8522 12.9264 21.3704 13.6979 20.5566 14.2969C19.7428 14.8958 18.75 15.1953 17.5781 15.1953C16.0742 15.1953 14.8893 14.7233 14.0234 13.7793C13.1641 12.8288 12.7344 11.5397 12.7344 9.91211C12.7344 8.29753 13.1641 6.9987 14.0234 6.01562C14.8893 5.03255 16.0449 4.54102 17.4902 4.54102C18.9095 4.54102 20.0358 5.00651 20.8691 5.9375C21.7025 6.86198 22.1191 8.10547 22.1191 9.66797V10.3906H14.8633V10.5176C14.8633 11.416 15.1139 12.1354 15.6152 12.6758C16.1165 13.2161 16.7871 13.4863 17.627 13.4863C18.2194 13.4863 18.7272 13.3496 19.1504 13.0762C19.5736 12.8027 19.8568 12.4382 20 11.9824ZM23.7598 15V4.72656H25.7715V6.47461H25.8203C25.9896 5.87565 26.2923 5.4069 26.7285 5.06836C27.1647 4.72982 27.6855 4.56055 28.291 4.56055C28.4928 4.56055 28.7337 4.58659 29.0137 4.63867V6.60156C28.8249 6.52344 28.5091 6.48438 28.0664 6.48438C27.3893 6.48438 26.8522 6.69596 26.4551 7.11914C26.0645 7.54232 25.8691 8.11849 25.8691 8.84766V15H23.7598ZM39.0918 4.72656L35.4102 15H33.1445L29.4434 4.72656H31.6895L34.2676 12.9395H34.3066L36.8848 4.72656H39.0918ZM40.3711 15V4.72656H42.4805V15H40.3711ZM42.2949 2.87109C42.054 3.10547 41.7643 3.22266 41.4258 3.22266C41.0872 3.22266 40.7975 3.10547 40.5566 2.87109C40.3223 2.63672 40.2051 2.35352 40.2051 2.02148C40.2051 1.68294 40.3223 1.39648 40.5566 1.16211C40.7975 0.927734 41.0872 0.810547 41.4258 0.810547C41.7708 0.810547 42.0605 0.927734 42.2949 1.16211C42.5358 1.39648 42.6562 1.68294 42.6562 2.02148C42.6562 2.35352 42.5358 2.63672 42.2949 2.87109ZM53.457 8.26172H51.4453C51.3346 7.68229 51.0677 7.21029 50.6445 6.8457C50.2279 6.48112 49.6908 6.29883 49.0332 6.29883C48.2129 6.29883 47.5553 6.62109 47.0605 7.26562C46.5723 7.90365 46.3281 8.76953 46.3281 9.86328C46.3281 10.9766 46.5723 11.849 47.0605 12.4805C47.5553 13.112 48.2194 13.4277 49.0527 13.4277C49.6973 13.4277 50.2246 13.2617 50.6348 12.9297C51.0514 12.5911 51.3216 12.1224 51.4453 11.5234H53.4766C53.3659 12.6237 52.9036 13.5124 52.0898 14.1895C51.2826 14.86 50.2637 15.1953 49.0332 15.1953C47.5553 15.1953 46.377 14.7201 45.498 13.7695C44.6191 12.8125 44.1797 11.5104 44.1797 9.86328C44.1797 8.23568 44.6191 6.94336 45.498 5.98633C46.377 5.02279 47.5488 4.54102 49.0137 4.54102C50.2897 4.54102 51.3249 4.89909 52.1191 5.61523C52.9134 6.32487 53.3594 7.20703 53.457 8.26172ZM61.0547 6.98242C60.5924 6.48763 59.9967 6.24023 59.2676 6.24023C58.5384 6.24023 57.9329 6.49089 57.4512 6.99219C56.9694 7.48698 56.7025 8.12826 56.6504 8.91602H61.7871C61.7611 8.12174 61.5169 7.47721 61.0547 6.98242ZM61.7773 11.9824H63.7793C63.6296 12.9264 63.1478 13.6979 62.334 14.2969C61.5202 14.8958 60.5273 15.1953 59.3555 15.1953C57.8516 15.1953 56.6667 14.7233 55.8008 13.7793C54.9414 12.8288 54.5117 11.5397 54.5117 9.91211C54.5117 8.29753 54.9414 6.9987 55.8008 6.01562C56.6667 5.03255 57.8223 4.54102 59.2676 4.54102C60.6868 4.54102 61.8132 5.00651 62.6465 5.9375C63.4798 6.86198 63.8965 8.10547 63.8965 9.66797V10.3906H56.6406V10.5176C56.6406 11.416 56.8913 12.1354 57.3926 12.6758C57.8939 13.2161 58.5645 13.4863 59.4043 13.4863C59.9967 13.4863 60.5046 13.3496 60.9277 13.0762C61.3509 12.8027 61.6341 12.4382 61.7773 11.9824ZM65.791 0.908203H70.7617C72.8581 0.908203 74.4922 1.52344 75.6641 2.75391C76.8424 3.98438 77.4316 5.70964 77.4316 7.92969C77.4316 10.1562 76.8457 11.8913 75.6738 13.1348C74.502 14.3783 72.8646 15 70.7617 15H65.791V0.908203ZM67.9785 2.79297V13.1055H70.5566C72.054 13.1055 73.1999 12.6628 73.9941 11.7773C74.7949 10.8919 75.1953 9.61589 75.1953 7.94922C75.1953 6.28906 74.7949 5.01628 73.9941 4.13086C73.1934 3.23893 72.0475 2.79297 70.5566 2.79297H67.9785ZM85.3516 6.98242C84.8893 6.48763 84.2936 6.24023 83.5645 6.24023C82.8353 6.24023 82.2298 6.49089 81.748 6.99219C81.2663 7.48698 80.9993 8.12826 80.9473 8.91602H86.084C86.0579 8.12174 85.8138 7.47721 85.3516 6.98242ZM86.0742 11.9824H88.0762C87.9264 12.9264 87.4447 13.6979 86.6309 14.2969C85.8171 14.8958 84.8242 15.1953 83.6523 15.1953C82.1484 15.1953 80.9635 14.7233 80.0977 13.7793C79.2383 12.8288 78.8086 11.5397 78.8086 9.91211C78.8086 8.29753 79.2383 6.9987 80.0977 6.01562C80.9635 5.03255 82.1191 4.54102 83.5645 4.54102C84.9837 4.54102 86.11 5.00651 86.9434 5.9375C87.7767 6.86198 88.1934 8.10547 88.1934 9.66797V10.3906H80.9375V10.5176C80.9375 11.416 81.1882 12.1354 81.6895 12.6758C82.1908 13.2161 82.8613 13.4863 83.7012 13.4863C84.2936 13.4863 84.8014 13.3496 85.2246 13.0762C85.6478 12.8027 85.931 12.4382 86.0742 11.9824ZM89.6484 7.63672C89.6484 6.71875 90.0195 5.97331 90.7617 5.40039C91.5039 4.82747 92.474 4.54102 93.6719 4.54102C94.8112 4.54102 95.7454 4.83073 96.4746 5.41016C97.2103 5.98307 97.5944 6.72852 97.627 7.64648H95.6445C95.5924 7.17773 95.3874 6.8099 95.0293 6.54297C94.6712 6.27604 94.1992 6.14258 93.6133 6.14258C93.0404 6.14258 92.5781 6.26953 92.2266 6.52344C91.8815 6.77734 91.709 7.10612 91.709 7.50977C91.709 8.13477 92.2331 8.57747 93.2812 8.83789L95.0098 9.23828C96.0449 9.48568 96.7773 9.82422 97.207 10.2539C97.6432 10.6771 97.8613 11.2695 97.8613 12.0312C97.8613 12.9688 97.4642 13.7305 96.6699 14.3164C95.8822 14.9023 94.8568 15.1953 93.5938 15.1953C92.3893 15.1953 91.4062 14.9089 90.6445 14.3359C89.8893 13.763 89.4694 13.0013 89.3848 12.0508H91.4746C91.5592 12.5456 91.7904 12.9264 92.168 13.1934C92.5456 13.4538 93.0534 13.584 93.6914 13.584C94.3229 13.584 94.821 13.4635 95.1855 13.2227C95.5566 12.9753 95.7422 12.6432 95.7422 12.2266C95.7422 11.8945 95.6315 11.6309 95.4102 11.4355C95.1888 11.2402 94.8112 11.0742 94.2773 10.9375L92.4414 10.4883C90.5794 10.0391 89.6484 9.08854 89.6484 7.63672ZM101.709 9.13086L105.859 4.72656H108.34L104.082 9.15039L108.506 15H106.055L102.568 10.4395L101.689 11.3086V15H99.5801V0.908203H101.689V9.13086H101.709Z" fill="#227ACC"/>
</svg>
