<svg width="20" height="22" viewBox="0 0 20 22" fill="none" xmlns="http://www.w3.org/2000/svg">
<path d="M1.34006 16.0001C0.917331 15.2691 0.588725 14.4875 0.362061 13.6741C0.855368 13.4232 1.26965 13.0407 1.55909 12.569C1.84852 12.0972 2.00183 11.5546 2.00203 11.0012C2.00224 10.4477 1.84934 9.90502 1.56026 9.43307C1.27118 8.96112 0.85718 8.57834 0.364061 8.32707C0.816097 6.69255 1.67679 5.20002 2.86506 3.99007C3.32915 4.29179 3.86768 4.45923 4.42104 4.47385C4.9744 4.48847 5.52101 4.3497 6.00039 4.0729C6.47977 3.7961 6.87321 3.39207 7.13719 2.90551C7.40116 2.41895 7.52537 1.86884 7.49606 1.31607C9.13817 0.891689 10.8613 0.892378 12.5031 1.31807C12.474 1.87083 12.5985 2.42086 12.8626 2.90728C13.1268 3.39369 13.5204 3.79754 13.9999 4.07413C14.4794 4.35071 15.026 4.48925 15.5793 4.47442C16.1327 4.45958 16.6711 4.29195 17.1351 3.99007C17.7141 4.58007 18.2281 5.25107 18.6601 6.00007C19.0931 6.74907 19.4171 7.53007 19.6381 8.32607C19.1448 8.57697 18.7305 8.95944 18.441 9.43117C18.1516 9.9029 17.9983 10.4455 17.9981 10.999C17.9979 11.5524 18.1508 12.0951 18.4399 12.5671C18.7289 13.039 19.1429 13.4218 19.6361 13.6731C19.184 15.3076 18.3233 16.8001 17.1351 18.0101C16.671 17.7083 16.1324 17.5409 15.5791 17.5263C15.0257 17.5117 14.4791 17.6504 13.9997 17.9272C13.5204 18.204 13.1269 18.6081 12.8629 19.0946C12.599 19.5812 12.4748 20.1313 12.5041 20.6841C10.862 21.1084 9.13883 21.1078 7.49706 20.6821C7.52611 20.1293 7.40166 19.5793 7.13748 19.0929C6.8733 18.6064 6.4797 18.2026 6.00023 17.926C5.52076 17.6494 4.97412 17.5109 4.42079 17.5257C3.86746 17.5406 3.32902 17.7082 2.86506 18.0101C2.27405 17.407 1.76166 16.7317 1.34006 16.0001ZM7.00006 16.1961C8.06569 16.8107 8.86691 17.7971 9.25006 18.9661C9.74906 19.0131 10.2501 19.0141 10.7491 18.9671C11.1325 17.7979 11.9341 16.8115 13.0001 16.1971C14.0653 15.5808 15.3206 15.3795 16.5251 15.6321C16.8151 15.2241 17.0651 14.7891 17.2731 14.3341C16.4525 13.4175 15.9992 12.2303 16.0001 11.0001C16.0001 9.74007 16.4701 8.56307 17.2731 7.66607C17.0636 7.21122 16.8125 6.7767 16.5231 6.36807C15.3193 6.62038 14.0649 6.41954 13.0001 5.80407C11.9344 5.18944 11.1332 4.20305 10.7501 3.03407C10.2511 2.98707 9.75006 2.98607 9.25106 3.03307C8.86766 4.20221 8.06606 5.18863 7.00006 5.80307C5.93484 6.41938 4.67954 6.62059 3.47506 6.36807C3.18563 6.77635 2.93519 7.21093 2.72706 7.66607C3.54763 8.58263 4.00094 9.76986 4.00006 11.0001C4.00006 12.2601 3.53006 13.4371 2.72706 14.3341C2.93653 14.7889 3.1876 15.2234 3.47706 15.6321C4.68078 15.3798 5.93527 15.5806 7.00006 16.1961ZM10.0001 14.0001C9.20441 14.0001 8.44135 13.684 7.87874 13.1214C7.31613 12.5588 7.00006 11.7957 7.00006 11.0001C7.00006 10.2044 7.31613 9.44136 7.87874 8.87875C8.44135 8.31614 9.20441 8.00007 10.0001 8.00007C10.7957 8.00007 11.5588 8.31614 12.1214 8.87875C12.684 9.44136 13.0001 10.2044 13.0001 11.0001C13.0001 11.7957 12.684 12.5588 12.1214 13.1214C11.5588 13.684 10.7957 14.0001 10.0001 14.0001ZM10.0001 12.0001C10.2653 12.0001 10.5196 11.8947 10.7072 11.7072C10.8947 11.5196 11.0001 11.2653 11.0001 11.0001C11.0001 10.7348 10.8947 10.4805 10.7072 10.293C10.5196 10.1054 10.2653 10.0001 10.0001 10.0001C9.73484 10.0001 9.48049 10.1054 9.29295 10.293C9.10542 10.4805 9.00006 10.7348 9.00006 11.0001C9.00006 11.2653 9.10542 11.5196 9.29295 11.7072C9.48049 11.8947 9.73484 12.0001 10.0001 12.0001Z" fill="#8896A1"/>
</svg>
